<svg xmlns="http://www.w3.org/2000/svg" viewBox="0 0 448.01 367.92"><defs><style>.cls-1{fill:#82eaf6;}.cls-2{fill:#0097bb;}.cls-3{fill:#fe78b9;}.cls-4{fill:#fe7eb9;}.cls-5{fill:#feb300;}.cls-6{fill:#feb600;}.cls-7{fill:#fec100;}.cls-8{fill:#feba00;}.cls-9{fill:#00677e;}.cls-10{fill:#fe7fb9;}.cls-11{fill:#fe9b75;}.cls-12{fill:#fe987d;}.cls-13{fill:#febc00;}.cls-14{fill:#fe82b7;}.cls-15{fill:#fe7bb9;}.cls-16{fill:#fe9e6e;}.cls-17{fill:#00d7e8;}.cls-18{fill:#feac45;}.cls-19{fill:#feb319;}.cls-20{fill:#fe84b3;}.cls-21{fill:#fe938b;}.cls-22{fill:#fea067;}.cls-23{fill:#fe88ac;}.cls-24{fill:#fe9190;}.cls-25{fill:#fea558;}.cls-26{fill:#fe8ba0;}.cls-27{fill:#fe87ac;}.cls-28{fill:#fea94d;}.cls-29{fill:#fe9683;}.cls-30{fill:#fe85b1;}.cls-31{fill:#feae3a;}.cls-32{fill:#fe8d9c;}.cls-33{fill:#fe8f98;}.cls-34{fill:#fe9290;}.cls-35{fill:#fe8ba1;}.cls-36{fill:#fea160;}.cls-37{fill:#fea45c;}.cls-38{fill:#fea853;}.cls-39{fill:#fe8f99;}.cls-40{fill:#feb034;}.cls-41{fill:#feb02d;}.cls-42{fill:#feb228;}.cls-43{fill:#feb601;}.cls-44{fill:#fe8aa6;}.cls-45{fill:#fe9f00;}.cls-46{fill:#fe9122;}.cls-47{fill:#fe9a00;}.cls-48{fill:#fe8d2a;}.cls-49{fill:#fe9419;}.cls-50{fill:#fea953;}.cls-51{fill:#fe970d;}.cls-52{fill:#fea068;}.cls-53{fill:#fea461;}.cls-54{fill:#feaa04;}.cls-55{fill:#00a5c4;}.cls-56{fill:#f4f9fb;}.cls-57{fill:#00bbd0;}.cls-58{fill:#fe8e9a;}.cls-59{fill:#fe948a;}.cls-60{fill:#fe9191;}.cls-61{fill:#fe8ba3;}.cls-62{fill:#fe86b5;}.cls-63{fill:#fe88ad;}.cls-64{fill:#fc549d;}.cls-65{fill:#01d7e8;}.cls-66{fill:#febd00;}.cls-67{fill:#009bbe;}.cls-68{fill:#feb136;}.cls-69{fill:#ebf7fa;}.cls-70{fill:#feb12b;}.cls-71{fill:#feb320;}.cls-72{fill:#01a6c6;}.cls-73{fill:#feb312;}.cls-74{fill:#e0f3f7;}.cls-75{fill:#00adcb;}.cls-76{fill:#00b2cb;}.cls-77{fill:#00afcc;}.cls-78{fill:#0cbbd5;}.cls-79{fill:#feae00;}.cls-80{fill:#fec600;}.cls-81{fill:#31cbde;}.cls-82{fill:#fe8357;}.cls-83{fill:#fe8750;}.cls-84{fill:#0fe1f4;}.cls-85{fill:#fe805d;}.cls-86{fill:#fe8a4d;}.cls-87{fill:#fe9b2a;}.cls-88{fill:#fe9831;}.cls-89{fill:#fe8d47;}.cls-90{fill:#fe9140;}.cls-91{fill:#fe9638;}.cls-92{fill:#fe7c63;}.cls-93{fill:#fe9f22;}.cls-94{fill:#fea35e;}.cls-95{fill:#fe9e6d;}.cls-96{fill:#fea066;}.cls-97{fill:#fea313;}.cls-98{fill:#fea801;}.cls-99{fill:#fe8a32;}.cls-100{fill:#fe9843;}.cls-101{fill:#00c1ec;}.cls-102{fill:#00b7cd;}.cls-103{fill:#00b2d6;}.cls-104{fill:#fd41a0;}.cls-105{fill:#ee3e9e;}.cls-106{fill:#fc4ca1;}.cls-107{fill:#81eaf6;}.cls-108{fill:#00bfd3;}.cls-109{fill:#fe5e7b;}.cls-110{fill:#fe868a;}.cls-111{fill:#fe7359;}.cls-112{fill:#fe6d5e;}.cls-113{fill:#fe7951;}.cls-114{fill:#fe6967;}.cls-115{fill:#fb5f87;}.cls-116{fill:#feb414;}.cls-117{fill:#fe796b;}.cls-118{fill:#fe6b79;}.cls-119{fill:#fe756e;}.cls-120{fill:#fe6781;}.cls-121{fill:#fd6387;}.cls-122{fill:#fe7374;}.cls-123{fill:#85e9f3;}.cls-124{fill:#88e9f1;}.cls-125{fill:#fe5b91;}.cls-126{fill:#fe5f8e;}.cls-127{fill:#01d1e5;}.cls-128{fill:#00d1e6;}.cls-129{fill:#00d2e6;}.cls-130{fill:#fd9f6d;}.cls-131{fill:#5dccdd;}.cls-132{fill:#fd5094;}.cls-133{fill:#fe5491;}.cls-134{fill:#00c1d5;}.cls-135{fill:#35c8da;}.cls-136{fill:#4ccdde;}.cls-137{fill:#71d2e2;}.cls-138{fill:#feae3b;}.cls-139{fill:#fead40;}.cls-140{fill:#feab46;}.cls-141{fill:#fea94e;}.cls-142{fill:#fea01c;}.cls-143{fill:#fe853a;}.cls-144{fill:#fe7f46;}.cls-145{fill:#fe8241;}.cls-146{fill:#fe7c4b;}.cls-147{fill:#feb12a;}.cls-148{fill:#fea854;}.cls-149{fill:#fe6371;}.cls-150{fill:#fe9f6e;}.cls-151{fill:#fd9880;}.cls-152{fill:#fd9b75;}.cls-153{fill:#f65aa0;}.cls-154{fill:#00bed2;}.cls-155{fill:#01c4d7;}.cls-156{fill:#01c3d6;}.cls-157{fill:#fe4c97;}.cls-158{fill:#feb21c;}.cls-159{fill:#10e1f4;}.cls-160{fill:#3dcfe0;}.cls-161{fill:#38cde0;}.cls-162{fill:#35c8db;}.cls-163{fill:#48ccde;}.cls-164{fill:#feb035;}.cls-165{fill:#1ec5d9;}</style></defs><g id="Capa_2" data-name="Capa 2"><g id="Capa_1-2" data-name="Capa 1"><path class="cls-1" d="M385.79,99.91c.22.24.41.67.65.69,7.28.86,7.38.89,4.65,8.17-3.54,9.45-7.27,18.83-10.92,28.24,1.1,2.6-.92,4.57-1.36,6.86-.41,1.11-.77,2.24-1.13,3.36-.9,2.68-2.14,5.23-2.94,8a41.39,41.39,0,0,0-2,6.81c-.47,1.61-.63,3.28-1,4.9-.42,1.37-.66,2.79-1,4.18a58.36,58.36,0,0,0-2,6.86,60.81,60.81,0,0,0-2,6.76c-.34,1.11-.72,2.2-1.08,3.3s-.71,2.18-1,3.28c-.68,2.21-1.09,4.5-1.91,6.67-.66,1.72-1.21,3.48-1.78,5.24-.47,1.3-.88,2.62-1.35,3.92a37.53,37.53,0,0,0-2,5.2c-1.22,3.63-2.59,7.21-3.95,10.78-2.2,5.38-4.79,10.58-6.92,16-3,5.79-5.91,11.62-9.95,16.79-4.22,5.27-8.74,10.07-16.15,10.38a11.37,11.37,0,0,1-4-.53c-6.19-3-8.68-8.15-9.15-14.74-.56-8,1.9-15.32,5.15-22.45.43-.91.92-1.79,1.4-2.67q4.92-8.06,9.72-16.21c1.66-2.44,3.59-4.69,5.11-7.23a89.21,89.21,0,0,0,5.4-7.69,125.38,125.38,0,0,0,7.55-10.23c1.42-2,3-3.8,4.27-5.88s2.95-3.68,3.32-6.11c.06-2-.82-3.83-1.41-5.71-.43-1.62-.84-3.25-1.21-4.89a14.21,14.21,0,0,1-.25-2.26c0-2-.06-4.11.06-6.16a22.45,22.45,0,0,1,5.9-12.36c2.26-2.32,3.46-5.2,4.62-8.15,4-10.07,8.53-19.8,16.8-27.24A21.71,21.71,0,0,1,385.79,99.91Z"/><path class="cls-1" d="M277,60a2.2,2.2,0,0,0-2,2.32c-.34,5-.75,10-1.14,15,1.35,1.66.61,3.49.23,5.17-1.44,6.39-2.79,12.8-5.07,19-.35.92-.79,1.8-1.21,2.7-.79,1.71-1.35,3.53-2.11,5.27a42.71,42.71,0,0,1-2.3,5.4c-1.34,2.13-3.3,2.54-5.58,2a99.57,99.57,0,0,1-10.48-2.73c-10.74-4.34-21.07-9.26-27.78-19.38a7.12,7.12,0,0,1-1.51-2.56c-.27-1.75-1-2-2.42-1.2-1.43-2.31-.91-5.25-2.49-7.51-1.1-2.59-5.48-2.26-5.36-6-.16-1.7,0-3.42-.59-5.07a9,9,0,0,1-.36-1.53c-.79-4.17.47-8.07,1.51-12,.66-3.32-1.13-7.11,2-10l.43.12c1.93,1.42,1.64,3.57,1.54,5.47-.17,3.4,1,5.4,4.59,5.69a29.16,29.16,0,0,1,3.39.79c4.21.89,6.22,3.39,6.09,7.75a70.91,70.91,0,0,0,.13,8.39,16.78,16.78,0,0,0,3.17-15.86c-2.62-9.83-.36-18.62,6.8-26,7.25-1.32,14.57-.35,21.85-.64,1.82-.07,3.65,0,5.48,0,9.7-.13,9.7-.14,12,9.52a5.52,5.52,0,0,1,.25,2.93c-2.16,2.49-.31,5.52-1.09,8.2-.33,1.24-1.72,1.36-2.42,2.22C273.86,58.62,276.68,57.06,277,60Z"/><path class="cls-2" d="M276,47.05c-3-2.12-2.18-5.65-3.08-8.53-.66-2.13-1.31-2.88-4-2.77-11,.46-22,.3-33,.37-7.43,2.3-15.56-2.25-17.8-10-2.81-6.9.65-11.71,5.29-16.2a47.33,47.33,0,0,1,13-8.89c1.72,3.86-2,6.23-2.12,9.73,4.35-2.42,7.6-6.07,12-8,1.22-.53,2.37-1.21,3.59-1.69,3-1.2,6.35-2,8.87.51s1.58,5.78.47,8.79l-1.12,2.94c4.82-1,9.26-2.07,13.74-2.94,6.88-1.34,12.38.86,14.5,5.68,2.34,5.33,1.27,8.36-3.9,10.88-1.28.62-2.65,1.07-4,1.6.8,1.87,2.86,2.21,4.12,3.52,2.45,2.56,4.44,5-.17,7.32-1.74.87-1.05,2.61-1.61,3.87C279.88,45.29,278.59,47.07,276,47.05Z"/><path class="cls-3" d="M446.93,255l-8,.19c-1.47,1.36-3.3,1.22-5.09,1.26-2.64.12-5.29,0-7.94,0-2.36,0-4.72.19-7.08,0-3,0-6,0-9,0q-5.41.19-10.83,0c-2.42,0-4.83.09-7.24,0-4.24.23-8.47-.05-12.71,0-2.71.22-5.42-.07-8.13,0s-5.41,0-8.12,0c-3.92,0-7.83.26-11.75,0-2.7.05-5.41.11-8.12,0-2.34-.27-5,.65-6.8-1.69,3.95-4.79,6.26-10.58,9.51-15.79,2.16-1.62,4.69-1.53,7.19-1.54q43.94,0,87.87,0c2.47,0,5-.24,7.12,1.61C448.08,244.35,448.22,249.69,446.93,255Z"/><path class="cls-4" d="M447.89,239l-102.18-.09,7-16c2-1.53,4.34-1.52,6.67-1.52q40.86,0,81.72,0c2.29,0,4.71-.26,6.58,1.6Z"/><path class="cls-5" d="M44,102.11A37.14,37.14,0,0,1,51.84,94c2.28-.72,4.62-.43,6.95-.43q31,0,62,0a22.19,22.19,0,0,0,4-.19c.63-.11,1.38-.15,1.71-.84.47-1-.38-1.48-1-2-1.49-1.38-4.27-2.08-3.27-4.89.92-2.58,3.5-3,5.82-3.1,14.28-.71,27.94-6.35,42.5-5.14,3.58.3,7.25-.87,10.79-1.83,2.1-.58,4.21-1.12,6.34-.09,2.29,1.9,2.45,4.6,2.73,7.26.27,2.27,1.41,4.59-.43,6.72-6.45,1.49-13,3.66-19.45,3.64-10.43,0-20.35,2.87-30.6,3.44-2.83.15-4.33,1.25-4.18,4.25a3,3,0,0,1-1.35,3c-2,1-4.22.87-6.37.88-25.6,0-51.19.06-76.79-.06C48.7,104.61,45.42,105.74,44,102.11Z"/><path class="cls-6" d="M188,76.09c-14.05,4.33-29.12,1-43.13,5.82-5.7,1.94-11.85,1-17.72,2.11-1.87.35-4.06.34-4.39,2.41-.28,1.75,1.93,2.13,3.25,2.47,2.31.59,3.78,2.14,3.54,4.17-.34,2.81-3,2-4.89,2-22.49,0-45,0-67.48,0A10,10,0,0,1,51.84,94a69.36,69.36,0,0,1,11.08-10c2.22-1.13,4.58-.49,6.87-.49,14.17,0,28.33,0,42.5,0,3.38,0,6.31-.06,6.27-4.84,0-2.36,2.33-3.53,4.51-4.1,5.16-1.34,10.35-2.79,15.69-2.94,13.81-.41,27.62-.65,41.32-2.74a9,9,0,0,1,5.36.8,4.62,4.62,0,0,1,2.06,1.56C188.31,72.85,189.15,74.38,188,76.09Z"/><path class="cls-7" d="M210.3,48.94c-.13,3.72-.27,7.44-.4,11.16a9,9,0,0,1-5.63,1.55c-7.06-.27-14.17.81-21.19-.72a16.19,16.19,0,0,0-13.44-1.26,19.19,19.19,0,0,1-5.38.9c-18.88.24-37.73,1.71-56.63,1.06-2.11-.07-4.37.22-6-1.68a136.77,136.77,0,0,1,45-13.52c20.67-2.67,41.42-2.66,62,1.67A8.21,8.21,0,0,1,210.3,48.94Z"/><path class="cls-8" d="M186,71.09c-3.57-1.79-7.15-.35-10.71,0A236.19,236.19,0,0,1,144,73c-7.26-.14-14.12,1.64-21.07,3.09-2.24.47-4.6,1.37-3.26,4.26,2.24,4.82-1.18,4.66-4,4.68q-18.49.15-37,0c-5.29,0-10.65.78-15.84-1A76.31,76.31,0,0,1,79.65,71.93c9.64-.8,19.3-.18,28.95-.32,3.56,0,7-.3,10-2.47a6.67,6.67,0,0,1,3.23-1.26c9.43-.9,18.65-3.34,28.22-3.36,11,0,21.9-1.27,32.8-2.59C188.81,64.18,189.37,65.84,186,71.09Z"/><path class="cls-9" d="M385.79,99.91c-16.65,6.89-23,21.83-28.9,37.07a9.53,9.53,0,0,1-2.64,4.13c-3.77,3.11-5.51,7.33-6.46,12a3.76,3.76,0,0,1-.2.46c-.95,1.37,1.14,4.5-1.53,4.34s-2.53-3.19-2.31-5.33c.45-4.48,2-8.72,3.21-13,4.4-16,8.64-32.09,13.25-48,.7-2.45.48-6.09,4.8-5.61l17.78.24c5.06.07,6.12,1.29,5.09,6.26C387.35,94.9,386.5,97.39,385.79,99.91Z"/><path class="cls-10" d="M1.07,234c-.24-4-1.5-7.92-.92-12,1.89-1.81,4.31-1.55,6.6-1.55q31.16-.06,62.3,0c3.34,0,6.61.61,9.91.94a2.52,2.52,0,0,1,2.29,2.33c-3,2.35-5.65,4.78-4.63,9.21.22,1-.82,1.71-1.8,2.1a20.26,20.26,0,0,1-6.43.6q-29.87,0-59.73,0C6.05,235.59,3.3,236,1.07,234Z"/><path class="cls-11" d="M10,160a8.25,8.25,0,0,1,1.84-5c2-1.55,4.33-1.54,6.67-1.54q57.64,0,115.3,0a13.92,13.92,0,0,1,4.93.6c2.12.83,1.73,2.35,1.08,4-1.72,2.71-3.91,4.8-7.23,5.39a77.72,77.72,0,0,1-10.46.28H19.33a27.88,27.88,0,0,1-6.46-.3C11.2,163,8.91,162.81,10,160Z"/><path class="cls-3" d="M10,255.14H7c-1.44.78-2.33.19-2.91-1.18l-1.23-8.77c1-3.6,4.12-2.71,6.5-2.74,12.78-.16,25.55-.07,38.33-.08,9.29,0,18.58,0,27.87,0,2.31,0,4.66-.16,6.86.84,2.64,2.05,2,5.22,2.75,8,.28,4-2.06,5.21-5.52,5.26-1.48,0-3-.08-4.45,0-3.34.14-6.68.14-10,0-3-.08-5.93,0-8.9,0a50.69,50.69,0,0,1-5.23,0c-2.85-.11-5.7.12-8.55,0-.85,0-1.7,0-2.56,0-1.43-.08-2.89-.06-4-1.2h-7c-2,.18-4,1.39-6,0H14C12.7,256.29,11.36,255.73,10,255.14Z"/><path class="cls-12" d="M10,160c.75,3.31,3.44,2,5.32,2q59.36.1,118.72.06a2.16,2.16,0,0,1,.39,2.24c-2.53,3.4-5.29,6.46-10.07,6.25-36.29.11-72.57.18-108.85,0-3.05,0-7.42,1-7.48-4.53A11,11,0,0,1,10,160Z"/><path class="cls-13" d="M184,63.1c-13.78,2.17-27.67,2.58-41.58,3.27-6.82.34-14.68.22-20.39,3.17-12.12,6.27-24.46,2.07-36.57,3.54a9,9,0,0,1-5.77-1.15,94,94,0,0,1,22-12c13.11,0,26.25.71,39.3-.09,7.77-.47,15.52-.59,23.28-.72,4.33-.08,8.18-2.88,12.64-2,2.33.43,5.09-.08,6.11,3C184,60.86,185.14,61.6,184,63.1Z"/><path class="cls-14" d="M447.71,223l-95-.1A53.3,53.3,0,0,1,356.9,212c27,1,53.94.16,80.9.45,2.79,0,5.72-.45,8.13,1.58A27.49,27.49,0,0,1,447.71,223Z"/><path class="cls-15" d="M82.9,244q-37.23,0-74.45,0c-1.9,0-4.06-.76-5.6,1.16A32.71,32.71,0,0,1,1.07,234H75.78c2.11,1.55,5.16.35,7.11,2.42C84.22,239,85.07,241.48,82.9,244Z"/><path class="cls-16" d="M140,155.05,11.79,155a18.41,18.41,0,0,1,3-7.24c3.14-.62,6.31-.29,9.47-.29q55.22,0,110.43,0c3,0,6-.44,8.82,1,1.46,1.23,1.07,2.66.46,4.12C143,154.06,142.07,155.47,140,155.05Z"/><path class="cls-17" d="M218.12,26.16c4.1,6.58,10,10,17.81,10-3,6.09-6.39,12.08-6.09,19.2a11.55,11.55,0,0,0,.63,4.39c3.91,8.2.34,14.6-5.61,20.74,0-4-.25-8.07.08-12.06s-1.59-5.32-4.88-6.2c-2.95-.78-7.08.18-8.6-2.36-1.34-2.22-.37-5.82-.45-8.81a16.22,16.22,0,0,0-.28-2A30.74,30.74,0,0,1,218.12,26.16Z"/><path class="cls-18" d="M25.79,126.74a10.22,10.22,0,0,1,3-4.73c2.38-1.43,5-1.57,7.71-1.57q47.68,0,95.36,0c2.64,0,5.36-.19,7.73,1.41a6,6,0,0,1,2.11,3.36c.17,1.4.08,2.71-1.3,3.54-2.19,1.06-4.54.9-6.86.9-33.29,0-66.58.06-99.87-.07C30.93,129.6,27.18,131.08,25.79,126.74Z"/><path class="cls-19" d="M44,102.11c1.66,1.69,3.78.93,5.68.94q42.65.08,85.27,0c1.91,2.13,2.92,4.31.43,6.72-1.86,1-3.88.75-5.87.75-27.91,0-55.82,0-83.74,0-2.4,0-5.44,1.08-6.75-2.36Z"/><path class="cls-20" d="M.15,216l.15-7c1.7-1.76,4-1.57,6.08-1.57q31.13-.09,62.26,0c6.6,0,7.27.78,7.9,7.37a2.38,2.38,0,0,1-.9,1.71c-2.28,1.33-4.81,1.08-7.28,1.08q-30.31,0-60.65,0C5.11,217.6,2.35,218.05.15,216Z"/><path class="cls-21" d="M4.84,177.81A8.4,8.4,0,0,1,6,173c1.77-1.58,4-1.59,6.13-1.6q37.46-.06,74.9,0a12,12,0,0,1,5.38.85c2.62,5.16.77,7.81-5.94,8.49-24.71-.32-49.43,0-74.14-.22C9.69,180.53,6.09,182,4.84,177.81Z"/><path class="cls-22" d="M144,150.06c-1.63-1.74-3.76-1-5.65-1Q79.55,149,20.79,149c-2,0-4.39.86-6-1.27.17-1,.24-2.05,1.21-2.69,1.48-1.31,3.27-1.49,5.14-1.48q60.12,0,120.22,0a8.86,8.86,0,0,1,2.46.35,4.07,4.07,0,0,1,2.75,2.45C146.83,148.41,146.61,150.08,144,150.06Z"/><path class="cls-23" d="M358.8,206.72A5.82,5.82,0,0,1,360,203c1.76-1.65,4-1.49,6.12-1.49h70.73c2.17,0,4.35-.11,6.14,1.47s.49,4.24,1.87,6c-1.87,1.86-4.29,1.6-6.58,1.6-24.24,0-48.49.12-72.73-.09C363,210.5,358.59,212.26,358.8,206.72Z"/><path class="cls-24" d="M4.84,177.81c1.51,1.95,3.67,1.19,5.57,1.19,23.77.05,47.54,0,71.32.06,1.76,0,3.68-.61,5.24.85-.38,2.74.31,5.92-3,7.45a53.22,53.22,0,0,0-9.92-.75q-31.65,0-63.28,0c-2.61,0-5.38.44-7.6-1.57A18,18,0,0,1,4.84,177.81Z"/><path class="cls-25" d="M18.88,139a6.93,6.93,0,0,1,2.1-4c1.77-1.6,4-1.48,6.12-1.48H137.15c1.83,0,3.67-.08,5.36.82,1.71,1.43,2.94,3,1.15,5.17-1.95,1.27-4.16,1-6.31,1q-55.93,0-111.88,0C23.18,140.53,20.75,141,18.88,139Z"/><path class="cls-26" d="M361.79,197.72a18.62,18.62,0,0,1,2.12-6.7c2.94,1.49,6.11,1.43,9.27,1.43,20.14,0,40.28,0,60.42,0a22.62,22.62,0,0,1,5.45.41A17.2,17.2,0,0,1,442,200c-1.56,1.65-3.61,1.49-5.59,1.49-22.94,0-45.88.07-68.82-.07C365.19,201.42,361.33,202.61,361.79,197.72Z"/><path class="cls-27" d="M75.79,215c-.15-5.81-3.69-6.17-8.52-6.11-22.32.25-44.65.11-67,.11-.58-2.08.21-4,.61-6,1.78-1.57,4-1.49,6.12-1.49q34.34,0,68.66,0c2,0,4-.16,5.78,1,.31.36.89.92.55,1.22C78.59,206.78,77.61,211.13,75.79,215Z"/><path class="cls-28" d="M25.79,126.74c1.63,2.17,4,1.28,6,1.28q54.57.09,109.16,0c1.73.86,2,2.22,1.35,3.92a3.71,3.71,0,0,1-1.57,1.11,15.78,15.78,0,0,1-5.43.45q-52.8,0-105.6,0c-2.43,0-5.06.57-7-1.55A13,13,0,0,1,25.79,126.74Z"/><path class="cls-14" d="M.15,216H75.93c2.95.94,4.11,3,3.69,6-3.37,2.37-6.73-.18-10.12-.14-23.11.25-46.23.13-69.35.13Z"/><path class="cls-29" d="M93.28,173.16,6,173a15.27,15.27,0,0,1,2-7c1.14,3.77,4.3,3,7,3q52.65,0,105.31,0c1.9,0,4-.75,5.68,1a3.45,3.45,0,0,1-1,2,7.31,7.31,0,0,1-4.8,2.26c-3.91.25-7.83,0-11.74.39A33.94,33.94,0,0,0,93.28,173.16Z"/><path class="cls-30" d="M358.8,206.72c.61,3.3,3.25,2.25,5.19,2.26q40.44.08,80.87,0a8,8,0,0,1,1.07,5c-27.89,0-55.79,0-83.69,0-1.87,0-4.55,1.3-5.34-2A9.32,9.32,0,0,1,358.8,206.72Z"/><path class="cls-31" d="M140,123.07c-2.12-1.35-4.49-1-6.8-1L28.83,122a10,10,0,0,1,2.75-4.07,9.51,9.51,0,0,1,5.21-1.37q49,0,98,0a9.83,9.83,0,0,1,3,.41,4.45,4.45,0,0,1,3,4.43A2.76,2.76,0,0,1,140,123.07Z"/><path class="cls-32" d="M1.89,193.89c.19-2.06-.41-4.25,1-6.12,7.1,1.12,14.25.63,21.38.65,17.6.06,35.21,0,52.81,0,2.8,0,5.67-.28,8.28,1.14,1,.81,2.42,2.16,1.52,3.12-2.33,2.46-1.94,6.1-4.15,8.5a2.74,2.74,0,0,1-1.92-1.72c-1.45-3.41-4.54-2.86-7.27-2.86-21.53-.07-43.06,0-64.6-.12C6.45,196.5,3.08,197.78,1.89,193.89Z"/><path class="cls-33" d="M85.88,191c-1.94-1.32-4.15-1-6.3-1-23.83,0-47.66,0-71.48,0-1.94,0-4.59,1.08-5.24-2.22.09-.91.17-1.83.26-2.74q38,0,76,0c2.18,0,4.38-.27,5.71,2C86.33,188.05,87.13,189.26,85.88,191Z"/><path class="cls-34" d="M365.78,185a16.73,16.73,0,0,1,2-7.08c3.11-.84,6.28-.41,9.42-.42,15.59,0,31.19,0,46.78,0A30.36,30.36,0,0,1,431,178a18.31,18.31,0,0,1,4.19,7c-1.84,1.89-4.26,1.65-6.55,1.65q-28.12.09-56.27,0C370,186.63,367.61,186.88,365.78,185Z"/><path class="cls-35" d="M1.89,193.89c1.56,1.86,3.7,1.1,5.59,1.1,23.21,0,46.41.13,69.61-.06,4.06,0,5.44,1.3,4.88,5.1-1.71,1.8-4,1.47-6.09,1.47q-34.35,0-68.72,0c-2.15,0-4.36.19-6.11-1.49C1.08,197.94.59,195.79,1.89,193.89Z"/><path class="cls-36" d="M145,145.05H16a7.24,7.24,0,0,1,1.94-4.11,21.29,21.29,0,0,1,5.46-.38H138c2,0,4-.21,5.93.5a3.23,3.23,0,0,1,1.48,1.23A2.59,2.59,0,0,1,145,145.05Z"/><path class="cls-2" d="M365,85.85c-2.12.54-2.58,2.26-3.08,4.08q-8.22,30.12-16.51,60.21c-.65,2.38-1,4.8.44,7.22,2-1,.41-3.33,1.93-4.28,0,2.32-.05,4.65-.08,7-5.67,2.38-8.38.51-9-6.24a24.55,24.55,0,0,1,1-4.72c.3-1.45.82-2.85,1.11-4.31.53-2.33,1.5-4.53,2-6.88.24-1.18.66-2.3.9-3.48a9.26,9.26,0,0,1,2.18-4.54q5.57-19.69,11.14-39.39C358.36,85.34,359.81,84.52,365,85.85Z"/><path class="cls-37" d="M144.94,142.06q-60.7,0-121.4,0c-1.89,0-4,.77-5.63-1.08l1-1.91,125.07,0C145,139.82,145.55,140.75,144.94,142.06Z"/><path class="cls-21" d="M431,178c-1.11,1.43-2.71,1-4.16,1q-27.42,0-54.85,0c-1.46,0-3.05.34-4.12-1.13a18,18,0,0,1,1.93-7.14c16.06,1.55,32.16.33,48.24.72,3,.07,6-.26,8.9.64A18.17,18.17,0,0,1,431,178Z"/><path class="cls-38" d="M22.67,132l119.3.08a1.93,1.93,0,0,1,1.4,2.5l-.42.5H21A4.45,4.45,0,0,1,22.67,132Z"/><path class="cls-39" d="M365.78,185h69.36a6.64,6.64,0,0,1,2,3.78c-.93,3.67-4.06,2.8-6.45,2.83-14.79.16-29.6.08-44.39.07-5.66,0-11.32.23-17-.15-2.05-.14-5,.15-4.42-3.56C365,186.89,364.8,185.75,365.78,185Z"/><path class="cls-40" d="M139,118.07l-107.36-.13a5.34,5.34,0,0,1,2.15-3,8.32,8.32,0,0,1,5.18-1.41q47.28,0,94.56,0a9.25,9.25,0,0,1,3.42.54C138.53,115,139.49,116.12,139,118.07Z"/><path class="cls-41" d="M138,115.07,33.74,115a8.93,8.93,0,0,1,3.14-4.11c5.13-.56,10.28-.28,15.42-.28q38.6-.06,77.18,0a31.74,31.74,0,0,1,6.46.25c1.72.49,2.91,1.38,2.53,3.43Z"/><path class="cls-32" d="M364.88,188c.34,2.41,2.2,2.07,3.83,2.07H433c1.47,0,3,.28,4.06-1.26a7.4,7.4,0,0,1,1.95,4.07c-1.35,1.8-3.33,1.17-5.07,1.17q-32.6.06-65.19,0c-2.14,0-5,.91-4.88-3C364,189.91,363.89,188.76,364.88,188Z"/><path class="cls-12" d="M370.76,166.79c.29-1.62-.18-3.41,1.08-4.82a5.79,5.79,0,0,1,3.64-1.37c13.84,0,27.68-.65,41.52.31a17.07,17.07,0,0,1,4.92,5.13c.48,4.12-2.83,3.39-4.93,3.49-7.12.34-14.25.13-21.38.13-6.47,0-12.94.18-19.4-.1C374.16,169.47,371.3,170.19,370.76,166.79Z"/><path class="cls-42" d="M137,112.07q-47.27,0-94.53,0c-1.88,0-4,.77-5.56-1.16A4.8,4.8,0,0,1,39,108.15c1.52,1.55,3.46.89,5.21.89q45.87.06,91.75,0a.93.93,0,0,1,1.21-.09,2.93,2.93,0,0,1,.53,1.26A2.13,2.13,0,0,1,137,112.07Z"/><path class="cls-11" d="M417,160.91c-1.06,1.48-2.64,1.12-4.08,1.12q-20.55,0-41.08-.06a13.47,13.47,0,0,1,2.1-6.94,5.28,5.28,0,0,1,3.63-1.41c10.76.08,21.54-.94,32.26.67A26.77,26.77,0,0,1,417,160.91Z"/><path class="cls-29" d="M370.76,166.79c1.17,1.7,2.95,1.23,4.55,1.23q21.13,0,42.26,0c1.66,0,3.87.8,4.35-2a23.25,23.25,0,0,1,5,6.07c-1.34,1.45-3.1.9-4.7.9q-23.61.06-47.23,0c-2,0-4.55,1-5.21-2.25C370,169.4,369.72,167.93,370.76,166.79Z"/><path class="cls-43" d="M267.79,101.78l6.09-24.45A67.5,67.5,0,0,1,288.23,89a2.55,2.55,0,0,1-2.08,1.21c-4.43,0-5.16,2.73-4.79,6.33,0,2.64.47,5.35-1.26,7.71-3,.76-6.09.38-9.12.15C269.53,104.26,267.55,104.23,267.79,101.78Z"/><path class="cls-44" d="M1.05,200H82l1,1a1.77,1.77,0,0,1,2,2.46c-.54,1.67-1.84,1.33-3,.37-1.58-1.39-3.5-.8-5.26-.8q-37.9-.06-75.8,0C1,202,1,201,1.05,200Z"/><path class="cls-44" d="M361.79,197.72C362.4,201,365,200,367,200q37.49.09,75,0c1,.77,1,1.89,1,3l-83,0A11.39,11.39,0,0,1,361.79,197.72Z"/><path class="cls-45" d="M279.93,104.08v-8c4.13-4.45,8.91-4.3,14-2,3.31,3,6.76,6,8.91,10a4.27,4.27,0,0,1-3.85,2.75c-6.22.56-12.42,1.42-18.67,1.79a2.46,2.46,0,0,1-1.12-1.3A3.1,3.1,0,0,1,279.93,104.08Z"/><path class="cls-16" d="M409.83,154.29c-4.14,1.59-8.44.61-12.66.71-7.74.17-15.49,0-23.23,0a22.79,22.79,0,0,1,2.89-8.15c5.86,1.1,11.79.65,17.69.66a54.19,54.19,0,0,1,7.32.74A35.77,35.77,0,0,1,409.83,154.29Z"/><path class="cls-46" d="M314.9,119.14a12.8,12.8,0,0,1,3.23,4.87c-1.19,1.93-3.16,2.39-5.17,2.45q-14.41.42-28.84,0a6.4,6.4,0,0,1-3.73-1.2A4,4,0,0,1,279,123a7.48,7.48,0,0,1,.24-4.24,1.72,1.72,0,0,1,1.22-1,2.54,2.54,0,0,1,1.46.66c4,2.35,8.28,1.33,12.39.77C301.18,118.24,308,119.15,314.9,119.14Z"/><path class="cls-47" d="M280,108.08c7.29-3.27,15.65-.39,22.88-4a16.28,16.28,0,0,1,5.19,5.81,2.13,2.13,0,0,1-2,2.82c-5.14.52-10.18,1.63-15.27,2.44-1.29.2-3.07.14-3.5-1.26-.69-2.26,2.22-1.17,2.78-2.35-3.25.94-6.41,2.89-10,1a3,3,0,0,1-1-2.18A2.75,2.75,0,0,1,280,108.08Z"/><path class="cls-48" d="M280,124.06c1.27.34,2.55,1,3.8,1,11.44-.46,22.95,1.25,34.33-1l1,1.74a1.81,1.81,0,0,1,0,1.65c-2.14,2.55-5.26,2.89-8.17,3-8.27.39-16.58-.47-24.82,1.06a8.29,8.29,0,0,1-4.88-.75,4.7,4.7,0,0,1-2.06-2.69C278.87,126.61,278.76,125.2,280,124.06Z"/><path class="cls-49" d="M314.9,119.14c-1.71,1.8-4.38,1.49-6,1.24-8.28-1.23-16.36,1.17-24.56.73-2.17-.11-3.55-.56-3.35-3,3.9-3.6,8.91-3.38,13.61-3.47A168.72,168.72,0,0,1,312,115,9.84,9.84,0,0,1,314.9,119.14Z"/><path class="cls-50" d="M318.89,127.08c.09-.44.17-.88.26-1.33,2.49,5.16,6.31,5.84,11.73,4.66,4.77-1,9.91-.42,14.89-.53.58,1.91-1,3.37-1,5.17a7.64,7.64,0,0,1-5.14,1.52c-7.07-.35-14.21,1.07-21.21-.94C315.36,132.59,317.27,129.84,318.89,127.08Z"/><path class="cls-51" d="M312,115c-.18.8-.32,1.91-1.39,1.63-4.41-1.14-9,.29-13.28-.73-5.91-1.41-10.91,1.48-16.35,2.15H280a4.34,4.34,0,0,1,0-6c4,.72,7.78-1.33,12.64-.85L287,114c6.2.33,11-2.31,16-2.29,2,0,4,.78,5-1.78A14.07,14.07,0,0,1,312,115Z"/><path class="cls-52" d="M401.84,148.28c-7.7,1.66-15.48.46-23.22.65-1.22,0-1.56-1.05-1.79-2.05a3.65,3.65,0,0,1,1.05-2.89,77.14,77.14,0,0,1,17.05.06A22.76,22.76,0,0,1,401.84,148.28Z"/><path class="cls-53" d="M394.93,144.05a29.81,29.81,0,0,1-17.05-.06q1.15-3.48,2.29-7A52.22,52.22,0,0,1,394.93,144.05Z"/><path class="cls-54" d="M293.93,94.08c-4.75,0-9.59-.52-14,2,0-6.8,0-6.8,8.29-7.12C290.63,90.12,292.23,92.16,293.93,94.08Z"/><path class="cls-55" d="M277,60a5.6,5.6,0,0,0-1.2-.78c-2.14-.73-5.87,1.26-6.19-2-.22-2.16,3.78-.39,5.31-2C275.08,57.06,279,57.21,277,60Z"/><path class="cls-56" d="M60.84,367.47c2.94-.65,4.5-.74,6.58-.08C65.33,368.14,63.72,368,60.84,367.47Z"/><path class="cls-17" d="M314,227.52c-1.8,7.33-5.6,14.09-5.22,22,.32,6.68,2.53,11.85,8.34,15.3-2.45,2.29-5.1,1.17-7.72.47a28.13,28.13,0,0,1-13.23-10.65,61.66,61.66,0,0,1-5.23-7.86c-1.77-5-4.08-9.72-5.36-14.85.09-3.89-4-7-2.1-11.23,3.93-3.39,9.13-2.61,13.63-4.14,4.38-.54,8.28-3.18,12.85-2.86A20.82,20.82,0,0,1,314,227.52Z"/><path class="cls-57" d="M308.94,264a18.94,18.94,0,0,0,8.22.86l3.77.14c1.38,1.09,3.86.28,4.53,2.61,0,2.91-2.34,3.95-4.43,4.76-7.73,3-14.8,7.56-22.53,10.29s-16.09,3.57-24-.7c-3.87-3.07-8.54-2.21-12.37-1.1-12.21,3.53-21.47-3.75-31.66-7.66-1.09-.42-2.62-1.31-1-3,3-2,6.34-1.75,9.64-1.76q29.4,0,58.81,0C302.27,268.49,306.17,267.74,308.94,264Z"/><path class="cls-58" d="M342.79,185a62.33,62.33,0,0,1-7.51,10.18c-6,.52-11.95.85-17.87-.51a2.05,2.05,0,0,1-1-1.46c.49-3-.73-6.29,1.86-8.81C326.47,183.21,334.68,182.2,342.79,185Z"/><path class="cls-12" d="M347.84,162A9.24,9.24,0,0,1,349,167c.08,1.88-1.44,2.27-2.66,2.3-9.63.28-19.27,1.12-28.87-.48a3,3,0,0,1-1.32-1.45,6,6,0,0,1,.25-4.86,3.24,3.24,0,0,1,2.44-1.57C328.52,160.42,338.26,159.42,347.84,162Z"/><path class="cls-59" d="M350.85,173a14.53,14.53,0,0,1-3.85,6,9.26,9.26,0,0,1-5.14,1.5c-8-.49-16.08,1.41-24-1.18a5.39,5.39,0,0,1-.13-6.62,7.56,7.56,0,0,1,4.7-1.28c7.77-.11,15.54-.09,23.31,0C347.59,171.5,349.42,171.65,350.85,173Z"/><path class="cls-11" d="M347.84,162c-8.59,0-17.18,0-25.77,0-1.74,0-3.68-.66-5.14,1-1.1.21-1.49-.54-1.81-1.37-.27-2.68.08-5.18,2.08-7.21,3.31-1.48,6.83-.86,10.25-.86,4.12,0,8.21-.3,12.32-.53.24,6.7.5,6.93,7.94,7C347.76,160.71,347.8,161.37,347.84,162Z"/><path class="cls-29" d="M350.85,173H317.93a.93.93,0,0,1-1.34-.08,4,4,0,0,1-.71-2.16A3.22,3.22,0,0,1,317,168c8.95,0,17.91,0,26.86,0,1.74,0,3.7.65,5.13-1A10.55,10.55,0,0,1,350.85,173Z"/><path class="cls-60" d="M317.94,179l29.06,0a22.78,22.78,0,0,1-4.21,6H317.94A4.22,4.22,0,0,1,317.94,179Z"/><path class="cls-61" d="M317,194c6.07.56,12.3-1.26,18.26,1.17L329.79,203c-4.13,2.24-8.38,2-12.67.52a3.89,3.89,0,0,1-1.37-2.41C315.5,198.64,315,196.11,317,194Z"/><path class="cls-62" d="M324.74,210,315,226.27c-2.56-4.89,0-9.83-.16-14.75a5,5,0,0,1,2.92-3.19C320.37,207.74,323,206.93,324.74,210Z"/><path class="cls-63" d="M324.74,210c-2.28-1.44-4.79-.89-7.24-.82-1.72-.39-1.92-1.74-2-3.17a4.18,4.18,0,0,1,1.5-3H329.8A27.11,27.11,0,0,1,324.74,210Z"/><path class="cls-64" d="M315.88,211c.76,5.15-.95,10.16-.85,15.26-.13.58-.21,1.19-1,1.27q-2-6.75-4-13.49A5.08,5.08,0,0,1,315.88,211Z"/><path class="cls-6" d="M190,89.09c.35-2.12-.67-4-1-6,1.79-1.43,3.82-.81,5.77-.64,6.46.57,13-.55,19.39.52,2.13,2.41,1.95,5.4,2.09,8.31,1.37,1.83,1,3.91.9,6a8.38,8.38,0,0,1-.42,1.78c-.44,4-2.78,5.77-6.71,5.49-6.34-.44-12.81,1.15-19.06-1.06C188.68,98.8,187.16,94.09,190,89.09Z"/><path class="cls-65" d="M216.1,97.26q.06-3,.11-6c.83,0,.93-2.51,1.79-1,6.43,11.73,17.55,17.38,28.93,22.75a2.66,2.66,0,0,1,.71,2.1c-.48,1.95-.18,4.08-1.3,5.89-1.6,1.43-3.41,1.11-5.11.38-9.95-4.26-18.22-10.54-23.84-20A17,17,0,0,1,216.1,97.26Z"/><path class="cls-66" d="M184,63.1c-.33-1-.67-2-1-3H209.9C207.11,63.71,208.52,68,208,72c-7,2.91-14,2.53-21.08.13-.33-.33-.67-.66-1-1C185.77,68.31,188.83,64.71,184,63.1Z"/><path class="cls-8" d="M187,72.09,208,72l0,.15c1,1.53-.12,3.4.79,5,.34,1.37.51,2.81,2.45,2.91s3,1,2.87,3c-8.38,2.11-16.78,1.33-25.17.12-.33-2.33-.67-4.67-1-7Z"/><path class="cls-67" d="M267,90.22c-1.13,3.84-3.11,7-7.34,7.78-4.52.78-7.48-1.79-9.76-5.35-1-1.53-2.07-3-2.94-4.56-.61-1.1-1.76-2.47-.58-3.6s2.41.19,3.56.7a6.14,6.14,0,0,1,2,1.75c5.26,4.84,7,5,12.92,1.39C266.76,87.68,268,87.71,267,90.22Z"/><path class="cls-68" d="M246.84,114.88l.09-1.8c3.81.85,7.68,1.54,11.42,2.63,2.26.66,3.35-.34,4.4-1.93,5.75,0,11.62-1.49,17.16,1.3,0,1,0,2,.08,3h-.08a5.43,5.43,0,0,1-3.59,1.46c-8.56.27-17.13.33-25.69,0C247.92,119.38,245.59,118.47,246.84,114.88Z"/><path class="cls-69" d="M263.48,60.59c3.06,6.41,2,12.42,5.06,17.41,1.1,1.83-1.35,2.81-3,3-2.77.26-4.54-1.21-4.55-4A59.88,59.88,0,0,1,263.48,60.59Z"/><path class="cls-70" d="M279.91,115.08c-4.24,0-8.48,0-12.72,0-1.58,0-3.33.4-4.44-1.28.72-1.59,1.45-3.17,2.17-4.75,5.05-.37,10.15-1.54,15,1l.06,2Z"/><path class="cls-71" d="M279.91,110.08c-5-.62-10.13,1.26-15-1a12,12,0,0,1,2-5c2.57.88,5.26.51,7.89.68,2,.13,4,.19,5.11,2.36,0,.33,0,.66,0,1C280,108.74,279.93,109.41,279.91,110.08Z"/><path class="cls-72" d="M246.08,59.84c3.13-3.49,6.36-5,10.4-4.65a2.11,2.11,0,0,1,2.13,1.74c.16,1.17-.76,1.75-1.75,2.07A23.75,23.75,0,0,1,246.08,59.84Z"/><path class="cls-73" d="M279.92,107.08c-2.75-1.65-5.79-.78-8.7-1-1.68-.14-3.83.68-4.3-2a2.58,2.58,0,0,1,.87-2.26c1.78,2.25,4.26,1.08,6.43,1.25,1.95.16,3.94-.07,5.71,1C279.92,105.08,279.92,106.08,279.92,107.08Z"/><path class="cls-74" d="M264.88,89.12c-5.24,4.58-9,4.06-13.92-1.93,1.76-1.41,3.22-.23,4.73.55L257,88A14.74,14.74,0,0,1,264.88,89.12Z"/><path class="cls-75" d="M253,71c-1.69.16-1.91-.89-2-2.14-.07-1.73.18-3.42,2.1-3.89,1.63-.4,1.74,1,1.79,2.16C255,68.75,255,70.41,253,71Z"/><path class="cls-76" d="M264.88,89.12A21.08,21.08,0,0,1,257,88c3.08-2.19,6.49-.1,9.76-.61,1.52-.24,1.26,1.72.2,2.81C267,88.48,266.11,88.48,264.88,89.12Z"/><path class="cls-77" d="M270.9,66.11c.21-1-.39-2.69,1.33-2.64,1.34,0,1.61,1.39,1.64,2.62s-.45,2.57-1.68,2.62C270.43,68.79,271.14,67.1,270.9,66.11Z"/><path class="cls-78" d="M255.69,87.74,251,87.19l-1-2C251.81,86.13,254.73,84.74,255.69,87.74Z"/><path class="cls-66" d="M208.81,77.06c-1.44-1.46-.67-3.28-.79-5C208.28,73.76,208.55,75.41,208.81,77.06Z"/><path class="cls-79" d="M190,89.09c-.62,4.73,1,9.3,1,14,.62,1.3.64,2.23-1.23,2-2.21-2.81-5.09-2.64-8.16-1.9-11.45,2.76-23,4.77-34.87,4.31-3.4-.13-6.33,2.12-9.74,1.61l-1,0q-.53-3-1-6c-1.92-7.39-1.31-6.93,6.06-8.24,12.17-2.16,24.6-1.82,36.64-4.58A45.15,45.15,0,0,1,190,89.09Z"/><path class="cls-80" d="M82,203.85c.76,0,2.07.11,2.18-.17.4-1.08-.36-2-1.17-2.66-.06-3.36-1.3-7.19,3.41-8.69l-.51-1.3c-.36-1.33-.73-2.66-1.09-4,.16-2.55.08-5.17,2.18-7.13,4.36-.15,5.33-3.45,6.31-6.76,5.09-2.78,10-2.48,14.6,1,1.68,1.18,2,3,2.09,4.82.16,2.45,1.72.4,2.5.81,4.69-.11,9.4-.3,12.09,4.69a6.35,6.35,0,0,1,.49,1.53,25.85,25.85,0,0,1,.09,6.09c-1.16,2.92,1.65,4.23,2.59,6.3a8.47,8.47,0,0,1,.27,4.12c-2.28,3.44,1.33,5.57,1.89,8.4a5.87,5.87,0,0,1-2.14,5.73c-12.84,3.49-26.07,5-39.09,7.48-2.47.48-5.17,1.77-7.63-.26L79.62,222l-3.69-6c-.05-.33-.09-.66-.14-1C75.3,209.89,76.21,205.53,82,203.85Z"/><path class="cls-81" d="M81,223.89,124,216.42l3.91-.7c1.47-.84,2.9-2.19,4.62-.45,1.44,3,.79,6.17.88,9.29.09,3.67,0,7.23-4.36,8.68a28,28,0,0,0-6.41,0c-2.21.05-4.44-.13-6.59.61a16.46,16.46,0,0,1-3,.41c-2.3.06-4.61-.19-6.85.57a14.91,14.91,0,0,1-2.3.38c-2.57.17-5.19-.21-7.71.63a13.35,13.35,0,0,1-2.36.38c-2.41.08-4.85,0-7.2.75a5.8,5.8,0,0,1-4.84-1c-2.22,0-5.16,2.12-5.92-2.06a4,4,0,0,0,0-1.47C73.56,227.23,75.22,224.32,81,223.89Z"/><path class="cls-82" d="M133.94,164c0-.65,0-1.31.05-2l5-4c3.09-1,6.28-.51,9.43-.53,12.49-.05,25,0,37.48,0a17.19,17.19,0,0,1,5.93.61c2.69,1.49,1,3-.19,4.15a20.43,20.43,0,0,1-9.29,5c-14.12-.11-28.23.54-42.35.21C137.49,167.41,134.35,167.93,133.94,164Z"/><path class="cls-83" d="M193.29,159.2c-16.4,0-32.8-.08-49.2-.18-1.74,0-3.69.65-5.14-1l1.05-3,2.94-2c4.47-2,9.1-2.24,14-2.16,10.38.17,20.77-.61,31.17-.14,3.6.65,7,1.61,9.29,4.87C197.24,158.18,196.23,159.79,193.29,159.2Z"/><path class="cls-84" d="M123,232c1.64.8,4-1.85,5.2,1,2,2.61.87,5.66,1.22,8.5a22,22,0,0,1,0,2.57c.08,3.64-1.19,7.16-1,10.81a26.69,26.69,0,0,1-.4,5.92,16.09,16.09,0,0,0-.57,6c-.54,5.89-1.1,6.43-6.87,6.55-2.15.05-4.3,0-6.44.05q-6.52.12-13.06,0c-3.15,0-6.3.13-9.45,0-1.82-.06-3.69-.07-4.93-1.77A17.09,17.09,0,0,0,85,264.58c-2.22-4.28-.36-9-.91-13.53-2.25-2,0-4.84-1.21-7.05a15.84,15.84,0,0,0-1.2-7.93l5.23-.08c2.21-1.25,4.81.32,7-1l2,0c2.54-1.3,5.44.35,8-1l2,0c2.2-1.28,4.81.33,7-1l3,0C118.14,231.74,120.74,233.31,123,232Z"/><path class="cls-85" d="M133.94,164c1.06,2.32,3.15,2.08,5.12,2,10.67-.3,21.34.36,32-.59,3.74-.33,7.81.61,11.75.58-1.93,4.75-6.44,5.64-10.6,7.09-13.05-1-26.07-.28-39.11.53-2.78.17-6.36,1.15-8.15-2.58l1-1Z"/><path class="cls-86" d="M189,152c-9.73.51-19.49.21-29.23.5-5.54.16-11.21,1.25-16.83.5l1-3a3.13,3.13,0,0,0,2-3,4.55,4.55,0,0,1,5.09-.78c6.29,2.37,12.69,1.84,19,.56,4.55-.92,8.74,1.9,13.2.67a6.66,6.66,0,0,1,4.16,1.51C188.38,149.8,189.48,150.51,189,152Z"/><path class="cls-87" d="M140,123.07l0-1a4.74,4.74,0,0,1,4.12-1.25c7.54,1.31,15.12-1.07,22.61.21,2.72.46,4.09-1.79,6.3-2.09a4.56,4.56,0,0,1,1.24,3.12,11.46,11.46,0,0,1-.24,3.46c-.94,2.84-3.39,2.91-5.71,3-7.15.13-14.31,0-21.45.07a5.93,5.93,0,0,1-5.88-3.46A2.11,2.11,0,0,1,140,123.07Z"/><path class="cls-88" d="M141,125.07c9,4,18.44,1.2,27.65,1.94,1.63.14,3.87.82,4.35-2a1.06,1.06,0,0,1,1.49.35,5.62,5.62,0,0,1,.46,4.29,3.55,3.55,0,0,1-3.82,2.59c-8.92-.56-17.87,1.18-26.77-.44a7.55,7.55,0,0,1-2.34-.8l-1-3Z"/><path class="cls-89" d="M184,148c-1.27,1.56-3.21,1.36-4.6.93-5.58-1.74-11.12-.45-16.56.22-5.91.74-11.13-2.24-16.82-2.13l-1-2c0-.66,0-1.33,0-2a8.38,8.38,0,0,1,5.25-1c9.52,1,19.06.4,28.59.38,2.18-.19,3.32,1.3,4.49,2.76C183.88,146.09,184.47,146.93,184,148Z"/><path class="cls-90" d="M180,143c-.4.29-.79.81-1.19.82-11.27.2-22.56.74-33.79-.8,0-.33,0-.67-.05-1l-1-3c-.33-1.34-.66-2.67-1-4h0c4.74-1,9.47-.45,14.2.05,5.91.63,11.81,1.06,17.66-.38a4.06,4.06,0,0,1,1.59-.12c2.07,1,2.06,3.41,3.32,5C180.29,140.71,181.05,141.83,180,143Z"/><path class="cls-91" d="M176,135.05a3,3,0,0,1-2.64,1.95A161.29,161.29,0,0,1,143,135.07l-1-3c0-.34,0-.67,0-1,2.21-1.8,4.43-.09,6.63,0,7.51.4,15-1,22.52,0,1.44.18,2.65-.24,2.82-2a1,1,0,0,1,1.28,0,10.2,10.2,0,0,1,1.37,4.05A2.29,2.29,0,0,1,176,135.05Z"/><path class="cls-92" d="M125,171.06c3.53,1.11,7.19.46,10.64.69,9.27.61,18.43-2.14,27.59-.39,3.23.62,6.5-.57,9.63.66-1.27,3.66-4.54,5.2-7.51,7.07a68.34,68.34,0,0,0-9.86,1.07,18.62,18.62,0,0,1-10.35-.53,15.49,15.49,0,0,0-8.31-.64c-7.2,1-14.43,2.25-21.67.26-.49-4.38,3.59-4.44,5.87-6.2C122.73,173.17,123.58,171.57,125,171.06Z"/><path class="cls-59" d="M121,173.05c-1.3,2.52-4,3.36-6,5-.47,1.53-1.71,2.23-3,2.82-1.1-.1-2.83,1.87-3-1.09a47.43,47.43,0,0,0-1-5.62C112.08,171.81,116.65,173.61,121,173.05Z"/><path class="cls-93" d="M173,119.07c-1.13,3.08-2.57,3.92-6.41,3.35-8.75-1.3-17.71.74-26.57-.36-.34-1.33-.69-2.66-1-4l-1-3h0a2.51,2.51,0,0,1,1.58-.51c10.08,2.51,20.36,2.09,30.61,2.18,1.48,0,3,.18,3.91,1.71C174,119.17,173.63,119.38,173,119.07Z"/><path class="cls-94" d="M343.77,138.08c-.67,2.33-1.33,4.65-2,7-1.59,1.53-3.63,1.56-5.61,1.5-6.11-.19-12.26.69-18.34-.58a3.19,3.19,0,0,1-1.43-1.19,5,5,0,0,1-.23-3.67,4.7,4.7,0,0,1,2.29-2.84A105.65,105.65,0,0,1,343.77,138.08Z"/><path class="cls-95" d="M339.77,153.08c-1.24,1.91-3.09,2-5.15,2-5.9-.09-11.8,0-17.7,0-1.15-1.07-1.17-2.46-1.11-3.88a4.41,4.41,0,0,1,1-2.4,4.77,4.77,0,0,1,1.6-.82c6.08-.79,12.2-.32,18.3-.33a5.41,5.41,0,0,1,4.1,1.43C340.43,150.39,340.1,151.73,339.77,153.08Z"/><path class="cls-25" d="M343.77,138.08c-5.4,2.08-11,.56-16.51.94-3.1.21-6.22,0-9.33,0a2.8,2.8,0,0,1-.5-3.45l.53-.53,26.76,0C344.4,136.06,344.08,137.07,343.77,138.08Z"/><path class="cls-96" d="M340.77,149.05H317a2.69,2.69,0,0,1,0-4h24.8C341.44,146.39,341.1,147.72,340.77,149.05Z"/><path class="cls-97" d="M139,115.07h-1c-.06-1.09.15-2.28-1-3,0-.67,0-1.33,0-2a11.39,11.39,0,0,1,7.65-1.45c12.55,1.62,25.14.53,37.71.87,2.47.07,5-.25,7.3,1a3,3,0,0,1,.9,3.45c-2.77,4.26-7.19,4-11.18,3.33-8-1.37-15.85.15-23.76-.36C150,116.56,144.55,115.34,139,115.07Z"/><path class="cls-98" d="M190,111.06c-17.67.06-35.33.27-53-1,0-.33,0-.66,0-1A18.23,18.23,0,0,1,148.14,106c11.58.39,22.81-1.93,34.06-4.39C185,101,190,98.15,190,105.09a4.41,4.41,0,0,1,1.11,3.83A3.26,3.26,0,0,1,190,111.06Z"/><path class="cls-18" d="M280,124.06l0,4-.72.65c-5.37,1.79-10.91.67-16.36.87-4.33.16-8.66.16-13-.07-3.31-.18-5.42-1.55-5.14-5.25a3.56,3.56,0,0,1,1.35-2.55c1.57-1.19,3.42-1.2,5.25-1.22q11.47-.1,22.95,0c2,0,4,.1,5.63,1.57Z"/><path class="cls-31" d="M279.94,122.07H246a.77.77,0,0,1-.43-.66c0-.29.05-.43.12-.43.53-2-.18-4.23,1.12-6.09-.12,3.15,1.93,3.23,4.28,3.21,9.6-.06,19.2,0,28.79,0Z"/><path class="cls-99" d="M318.89,127.08c0,2.7-1.47,5.23-.93,8l-.07,0a4.66,4.66,0,0,1-3.11,1.36c-10.54,0-21.08,1-31.62-.09a4.79,4.79,0,0,1-2.27-.91c-1.34-1.8-1.47-3.58.06-5.34,11.67-1.5,23.51,0,35.15-2A18.42,18.42,0,0,0,318.89,127.08Z"/><path class="cls-100" d="M281,130.06v5a2.32,2.32,0,0,1,.11,3.07c-2.11.15-2-1.54-2.36-2.83a20.9,20.9,0,0,1-.09-3.36,5.53,5.53,0,0,1,1.31-3.87h0A2.07,2.07,0,0,1,281,130.06Z"/><path class="cls-101" d="M166,178c1.53-2.87,4.47-4.14,6.87-6l10-6c3.73-1.9,7.56-3.64,10.45-6.82,1.76-.38,2.77-1.69,3.72-3,1.08-2.85,2.92-4.64,6.2-4.41,2.7,1.45,4.54,3.88,6.65,6,14.17,14.08,32.9,13.56,46.42-1.33,1.31-1.45,2.21-3.39,4.37-3.93,2.08-.12,3.73,1,5.46,1.87,3.92,2.55,8,4.8,12.13,7,7.68,3.74,15.6,7.16,20.09,15.14.88,1.34,1.74,2.71,2.65,4,2.3,3.65,4.45,7.38,6.94,10.9,1.95,3,3.74,6.15,5.62,9.23.78,1.8,2.44,3.23,2.36,5.41l1.6,3.13L315.88,211l-5.82,3L297.9,218c-2.93-1.59-3.58-4.62-4.61-7.39a58.86,58.86,0,0,1-3.76-16.67,32.39,32.39,0,0,0-7.38,18.1c-.21,1.74-.95,3.39-.86,5.18a20.86,20.86,0,0,1-.45,3.86,17.43,17.43,0,0,0-.5,6.23c.05,1.65,0,3.29,0,4.94-.27,4.88.93,9.63,1.19,14.47.12,2.64,1.41,5.3-.09,7.92-2.83,2.85-6.47,1.63-9.8,1.88a51.18,51.18,0,0,1-5.4,0c-19-.35-38,0-57-.14-8-.05-8.74-.55-10.29-8.32-2.45-12.25-4.43-24.55-4.62-37.11a38.77,38.77,0,0,0-7.84-23.19c-.58-1.13-1.14-.21-.62-.63.11-.09.21,0,.39.29a6.5,6.5,0,0,1,1.16,2.74,123.78,123.78,0,0,1,.06,33.74c-1.81,2.29-4.53,2.61-7.09,3.17a96.2,96.2,0,0,1-18.21,2.12,47.65,47.65,0,0,0-7.81-.88c-3.18-.12-4.46-1.67-3.52-4.82.79-2.48,1.07-5.09,1.75-7.61a35.07,35.07,0,0,0,1.15-5.84c.46-2.43,1.87-4.53,2.33-6.95,1-3,2-5.94,3-8.92.68-1.76,1.25-3.56,1.85-5.36.79-1.95,1.65-3.87,2.31-5.87C164.06,181.25,164.55,179.39,166,178Z"/><path class="cls-102" d="M265.94,255c5-.6,10.25,1.26,15.13-1.2a68.5,68.5,0,0,1,16.19.26A28.09,28.09,0,0,0,308.94,264c1,5.33-3.44,5.15-6.38,5.83-2.68.62-5.62.14-8.45.14q-25.2,0-50.41,0c-5,0-9.95-.19-14.84,1-2.23,1.4-4.18,0-6.12-.73-5.9-2.3-11.56-5.16-17.34-7.75-4.59-2.06-9.14-3.94-14.23-4.41-1.14-.11-5,.31-2-3.09a25.18,25.18,0,0,1,12.29.06,12.59,12.59,0,0,0,3.44.4h58.71A3.87,3.87,0,0,0,265.94,255Z"/><path class="cls-103" d="M281.11,212.24c0-8,3.39-14.52,9.09-21.22,1.29,9.78,3.22,18.78,7.7,27l-14,3c-3.13-.58-2.22-3.37-2.91-5.29C280.9,214.56,281.86,213.42,281.11,212.24Z"/><path class="cls-104" d="M280.14,247c-.43-5-1.77-9.94-1-15a5.92,5.92,0,0,1,7.66,0q2.73,7.47,5.47,14.92C287,250.1,283.65,250.13,280.14,247Z"/><path class="cls-105" d="M280.14,247c4.05,2.49,8.06-.3,12.1-.1l5,7.14c-5.42,1.42-10.83,1.77-16.19-.26Z"/><path class="cls-106" d="M286.77,232h-7.66c0-1.68,0-3.35,0-5,.89-2-.26-4.17.77-6.11.08-1.29.16-2.58.23-3.87.68-.55-.19-2.42,1.68-1.95l2.14,6C283.4,225.06,287.39,227.94,286.77,232Z"/><path class="cls-107" d="M187.79,256c15,1.43,27.08,10.8,41.07,15,7.13,3.81,14.87,6.19,22.24,9.42,3.27,1.42,6.2-.34,9.16-.9a64,64,0,0,1,13.31-.63c1.24,0,3.1.08,1.42,2.19-.69,1.17-2.2,1.45-3.09,2.95a198.44,198.44,0,0,0,21.76,10.21c1.2.51,2.46.89,3.6,1.51,1.85,1,4.14,1.77,4.08,4.33-.06,2.27-2.1,3.09-3.87,3.95-8.87,2.57-17.86,1.74-26.6-.1-16.9-3.55-33.82-7-50.71-10.51a339.83,339.83,0,0,1-36.7-8.74c-5.77-1.67-11-4.58-16.23-7.39-4-2.15-3.88-6.63-4.89-10.4,0-2-.47-4-.61-6-.06-1-.08-2-.09-3s0-2.08-.1-3.12a40.57,40.57,0,0,1-1-8.93,34.6,34.6,0,0,1,0-4.32c.48-4.48-.9-9.1,1-13.47a127.72,127.72,0,0,0,25.41-3.92,3.11,3.11,0,0,1,1.19,2.13C188.55,236.16,189.21,246.11,187.79,256Z"/><path class="cls-108" d="M292.89,295.08c-8.25-2.79-15.75-7.17-24.36-11,2.33-1.74,4.07-3,6.46-3a29.37,29.37,0,0,0,22.67.5c8.08-3,15.64-7.64,23.75-10.88,1.66-.66,3.52-1.36,3.53-3.7l1-.19a34.43,34.43,0,0,0,9,3.06l2.91,1.17c.56,2.24-1.3,3-2.52,4.19-8.48,8.7-19.58,12.74-30.63,16.63C300.92,293.21,297.31,295.84,292.89,295.08Z"/><path class="cls-109" d="M312.81,201.07l-5.66-9c2.89-2.51,5.93-4.38,9.87-2.23a3.24,3.24,0,0,1,0,3.23l0,1-.15,7A3,3,0,0,1,312.81,201.07Z"/><path class="cls-110" d="M317,193c0-1-.05-2-.08-3-2.26-3.05-1.28-6.55-1.41-9.9.06-2.45-.51-5,1.49-7.08h.94q0,3,0,6v6C317.52,187.68,318.88,190.54,317,193Z"/><path class="cls-111" d="M316,162l1,1c0,1.32,0,2.65,0,4-6.4,1.13-12.65,2.86-19,4.38-4.81-3-6.56-6.48-5.07-10.08C300.59,160.45,308.35,158.94,316,162Z"/><path class="cls-112" d="M297.94,171c6-2.73,12.11-5.16,18.95-4,0,.33.07.67.1,1,0,1-.07,2-.1,3-2.22,2-5,1.58-7.58,1.44-3.48-.19-6.94.41-10.41.13C298.18,172.32,297.63,171.92,297.94,171Z"/><path class="cls-113" d="M316,162H292l-.82,0c-1.91-.65-4-.33-5.87-1-2.45-1-5.42-2-2.86-5.59a83.37,83.37,0,0,1,16.12-1.74c6.25.05,12.43-.06,18.31-2.55,0,1.32,0,2.65.05,4Z"/><path class="cls-114" d="M298.9,172.05c5.91-1.86,12-.07,18-1,0,.66.07,1.33.1,2,0,2.33-.05,4.66-.08,7-6,4-11.8,4.36-16.76,1-.74-1.34-2.35-2.16-2.37-3.94C296.93,175.14,296.51,173.28,298.9,172.05Z"/><path class="cls-115" d="M312.81,201.07l4.06-.07.09,2c-.1,1.09.18,2.31-1.06,3C314.71,204.47,313.35,203,312.81,201.07Z"/><path class="cls-1" d="M261.08,153c-5.05,5.71-10.27,11.14-17.69,13.91-12.11,4.52-23,3.14-32.39-6.24-2.82-2.82-5.53-5.75-8.29-8.63-.3-1.58.83-2.46,1.68-3.48,1.41-1.39,2.81-2.78,4.17-4.22,1.83-1.66,3.31-3.49,3.23-6.16a31.44,31.44,0,0,0,.84-8.7c0-.51,0-1,0-1.52,0-1.3,0-2.59.06-3.88a15.34,15.34,0,0,1,.24-2.35,27.69,27.69,0,0,0,.66-8.56c0-1.34,0-2.68.06-4a14,14,0,0,1,.42-3.23c1.41-2.42,1.38-5.15,1.69-7.8.11-.29.23-.58.35-.86A51.29,51.29,0,0,0,240.53,120c1.67.76,3.29,1.53,5.19,1l.31,1.09-.21,1.69c-1.45,2.89.87,5.13,1.31,7.69a11.31,11.31,0,0,1,.11,1.42,18.24,18.24,0,0,0,.82,4.69c.4,2.68,2.07,4.71,3.54,6.83a16.91,16.91,0,0,0,5,4C258.12,149.89,260.81,150.24,261.08,153Z"/><path class="cls-116" d="M215.75,98.11c-.05,2.7.27,5.43-.72,8-5.3,2.68-11,.8-16.47,1.38-2.36.25-5-.78-7,1.44a1.42,1.42,0,0,1-1.61.12c0-1.34,0-2.68,0-4a2.08,2.08,0,0,0,1-2c5.79,0,11.59-.25,17.35.08C212.38,103.4,215.32,102.83,215.75,98.11Z"/><path class="cls-81" d="M377.86,269.87c-1,.85-.83,2.09-1.09,3.18-1.25,4.43-4.59,7.08-8.53,8.51a44.36,44.36,0,0,1-29.35.17,7.48,7.48,0,0,1-4.56-3.68A4.08,4.08,0,0,1,335,274a6,6,0,0,0,2.89-2.93L354.93,265c3.68-.58,7.46-.61,11-1.95l7,.77c2.49.9,3.81,2.91,4.85,5.17A6.25,6.25,0,0,0,377.86,269.87Z"/><path class="cls-117" d="M166,178a7.63,7.63,0,0,1-1.94,5,9.2,9.2,0,0,1-6.39,2.28c-9.22-.08-18.41.6-27.6,1.16-2.12.13-4.32.1-6.09-1.46-2.91-4.54-7.58-4-12-4.15a6.7,6.7,0,0,1,3-2.82c7.3,1.86,14.53.32,21.75-.52,3.14-.36,5.92-.87,9.05.9,2.86,1.62,6.95,1.43,9.72.3C159.19,177.26,162.5,178.11,166,178Z"/><path class="cls-118" d="M160,194.06a27.19,27.19,0,0,1-3,9c-10,2-20,2.75-30,0l-.1-5c0-2.27,1.91-2.43,3.35-3,8.33-3.37,17.36-2.11,25.94-3.84C157.89,190.87,160,191.48,160,194.06Z"/><path class="cls-119" d="M124,185c13.39,0,26.74-1,40.08-2a14,14,0,0,1-2.23,6,3.23,3.23,0,0,1-2.68,2c-11.09.47-22.19,1.28-33.27-.14-2.2-1-.82-3.33-1.74-4.82Z"/><path class="cls-120" d="M127.05,203c9-.49,18.16,1,27.19-.81.84-.16,1.85.53,2.78.83.71,2.73-1.94,4.48-2.06,7-1.26,1.12-2.79.86-4.28.88-4.31,0-8.58-.08-12.85,1.09a10.41,10.41,0,0,1-9-1.93C127.77,207.84,123.22,206.49,127.05,203Z"/><path class="cls-121" d="M128.83,210.06c7,2.2,13.83-1.4,20.78-.78,1.79.15,3.57.49,5.35.74.41,2.16-.52,4.06-1.17,6-6,3.89-12.69,3.45-19.35,2.87-2.27-.2-1.73-2.43-2.28-3.85l-4.3.66A9.11,9.11,0,0,0,128.83,210.06Z"/><path class="cls-122" d="M125.05,190.05l31,0c2,0,4,.23,5.8-1a9.24,9.24,0,0,1-1.82,5c-.82-1.15-2.17-2.14-3.33-1.81-9.51,2.65-19.82.72-29,5.13-.28.13-.47.44-.7.67-1-1.68-5.43-1.4-2.82-5.07C124.88,192.14,124,190.79,125.05,190.05Z"/><path class="cls-123" d="M105.16,198.68c-3.55,1.94,1.83,9.28-5.1,8.91-2.29-.12-8.59,1.94-7.66-3.6.49-2.86-.32-8.8,4.14-8.86C98.5,195.1,104.36,191.65,105.16,198.68Z"/><path class="cls-124" d="M119.21,212.08c-3.71,0-7.51-3.69-7.33-6.47.1-1.66.94-3.5,2.55-2.74,2.74,1.3,7.46-.49,8,3.92C122.58,208.13,121.87,211.77,119.21,212.08Z"/><path class="cls-117" d="M125.05,190.05c-.12,1,.11,2.18-.92,2.93q0-3.45,0-6.9C125.42,187.17,124.81,188.71,125.05,190.05Z"/><path class="cls-125" d="M161.53,228q.14,7,.26,13.94c-3-1-1.81-3.56-2.19-5.54-.06-1.71-.1-3.69-2.5-3.39-6.87.84-13.89-.69-20.68,1.66-3.32,1.15-6.12,2.44-6.77,6.31a1.32,1.32,0,0,1-1.51,1c0-3,0-5.95,0-8.93,2.76-2,4.56-4.45,4-8.07.74-1.79,2.38-2.06,4-2.45,4.36-1.05,8.82-1,13.25-1.17,1.15-.06,2.87-.37,2.63,1.82-.72,2.76-.3,4.39,3.2,4C157.33,226.86,159.57,226.74,161.53,228Z"/><path class="cls-126" d="M152.05,223.17a49.87,49.87,0,0,0-19.88,1.8c0-3.3,0-6.61,0-9.91.89,2.24,2.39,3,4.92,3.05,5.71.15,11.14-1.39,16.71-2.07A18.92,18.92,0,0,1,152.05,223.17Z"/><path class="cls-127" d="M104,234c-2.46,1.94-5.33.55-8,1C98.43,233,101.3,234.41,104,234Z"/><path class="cls-128" d="M123,232c-2.13,1.87-4.69.61-7,1C118.05,231.11,120.61,232.35,123,232Z"/><path class="cls-128" d="M94,235c-2.13,1.87-4.68.6-7,1C89.06,234.11,91.61,235.35,94,235Z"/><path class="cls-129" d="M113,233c-2.12,1.89-4.68.61-7,1C108.08,232.09,110.64,233.38,113,233Z"/><path class="cls-130" d="M204.91,149.05l-2.2,3-5.7,4.13a18.6,18.6,0,0,0-8-4.12l-2-2a1.56,1.56,0,0,1,1.29-1.8C193.87,147.37,199.48,146.32,204.91,149.05Z"/><path class="cls-131" d="M93.08,275.05c0,.3-.08.6-.14.91-2.12,0-4.24,0-6.35,0-1.87.07-3.31-.62-3.71-2.46-.56-2.57,1.85-2,3.13-2.68l-.07.3c1.29.05-1.17,2.4,1.38,2A6.43,6.43,0,0,1,93.08,275.05Z"/><path class="cls-132" d="M160.91,236c.36,2-.66,4.14.88,5.94,0,1.35,0,2.7,0,4.05-6.4,3.69-14,3.81-20.65,6.73-2.57,1.12-5.27,2-7.81,3.21-2.24.37-4.52.91-6.24-1.25a48.57,48.57,0,0,1,1-10.69c10-3.37,20.24-6,30.47-8.63A2.55,2.55,0,0,1,160.91,236Z"/><path class="cls-133" d="M160.91,236c-8.67,2.39-17.36,4.69-26,7.22a24.25,24.25,0,0,1-6.8.77c0-.68,0-1.35,0-2,2-6.66,6.28-9.68,14.25-10,4.62-.16,9.3.2,13.83-.48C160.37,230.9,161.58,232.17,160.91,236Z"/><path class="cls-134" d="M114,272a36.3,36.3,0,0,1,5.9,0c5.11.83,6.91-1.38,6.24-6.21,2.14-1.71,4.94-.84,7.26-1.86a43.33,43.33,0,0,1,8.67-.37c2.93,0,5.85-.16,8.77,0,2.54.17,5.15-.4,7.57.76-.15,2.51-.14,2.62-2.64,2.86-3.46.32-6.94.05-10.41.16-1.79.05-3.62-.36-5.61.45,2.08,2.86,6.37,3.92,6.41,8.17-2.76,1.7-5.1-.6-7.66-.78-4.34-.54-8.65.49-13,.21-3.84.51-7.54-.5-11.28-1.07A1.53,1.53,0,0,1,114,272Z"/><path class="cls-135" d="M114,272l0,2.11c.33.23.42.43.28.6a.53.53,0,0,1-.39.24L99,274.89c-1.53-2.41,1-2.05,1.92-2.84Z"/><path class="cls-136" d="M100.93,272.05c-.58,1-2.1,1.34-1.92,2.84l-5.93.16a36.19,36.19,0,0,0-6.2-1c-4,.05-.32-2.06-.94-2.91a5.93,5.93,0,0,1,.92-.24C91.39,273.24,96.26,271.39,100.93,272.05Z"/><path class="cls-137" d="M126.93,260.9c-.59,5.23,3.23,3.93,6.06,4.09-2.13,1.67-4.57.67-6.88.81C126.2,264.13,125.57,262.35,126.93,260.9Z"/><path class="cls-96" d="M204.91,149.05c-6,.57-12.06-1.21-17.93,1l-3-2-1-2c0-1.83,1.49-2.18,2.72-2.26a121.51,121.51,0,0,1,21.24.08,3.36,3.36,0,0,1,2.1,1.21A11,11,0,0,1,204.91,149.05Z"/><path class="cls-138" d="M214.78,113.09c0,3,.38,6.06-.81,9-1.47,1.35-3.3,1.39-5.13,1.4q-15.37,0-30.74,0c-1.83,0-3.66,0-5.13-1.39,0-1,0-2,0-3h1a1.72,1.72,0,0,1,1.27-.48c1.17.13,2.34.25,3.51.31,3.76.67,7.59,1.8,10.75-1.6,6-1.37,12.17-.31,18.24-.71,1.68-.11,3.75.77,4.81-1.46C213,114.14,213.39,113.06,214.78,113.09Z"/><path class="cls-139" d="M173,122.07h41c0,.66,0,1.33,0,2a4.87,4.87,0,0,1-3.15,1.37c-12.28.12-24.58.81-36.85-.35l-1,0Z"/><path class="cls-140" d="M174,125.08c1.46-1.65,3.41-1,5.16-1,11.61,0,23.22,0,34.84,0l-.16,4a4.36,4.36,0,0,1-3.11,1.37c-11.91.1-23.83.82-35.73-.35l-1,0C174,127.73,174,126.4,174,125.08Z"/><path class="cls-94" d="M209,145.08c-7.13,0-14.26-.05-21.39,0-1.6,0-3.37-.55-4.67,1q-1.5-1.5-3-3c-.34-1-.67-2-1-3,.07-2.11,1.81-2.29,3.18-2.35a279.21,279.21,0,0,1,28.2,0,4.59,4.59,0,0,1,2.63,1.29C213.44,142.23,211,143.5,209,145.08Z"/><path class="cls-25" d="M213,139.05c-9.62,0-19.24,0-28.85,0-1.74,0-3.69-.67-5.16,1a5.92,5.92,0,0,1-2-5c1.73-1.76,4-1.45,6.1-1.47,7.8,0,15.61,0,23.42-.06,1.69,0,3.75.78,4.88-1.38.52-1.24.45-2.92,2.38-3A31.65,31.65,0,0,1,213,139.05Z"/><path class="cls-38" d="M212.9,132c.33,3.49-2.16,3-4.27,3q-15.84,0-31.69,0l-1,0c0-.66,0-1.32,0-2,.07-2.11,1.81-2.3,3.18-2.35,10.38-.41,20.77-.49,31.15,0A4.24,4.24,0,0,1,212.9,132Z"/><path class="cls-141" d="M212.9,132c-10.6,0-21.2,0-31.8.05-1.74,0-3.68-.66-5.14,1-1.45-1.06-.86-2.62-1-4,1.45-1.64,3.4-1,5.13-1,11.24-.06,22.48,0,33.71,0,0,.35,0,.7-.07,1.05C212.76,129.9,213,131,212.9,132Z"/><path class="cls-142" d="M189,118.07c.16,2.4-1.12,2.94-3.31,3.07-2.69.17-5.1-1.06-7.71-1.08-.67-1.37-2.08-.44-3-1h-1c-6.55-2.25-13.3-.65-20-.9-5.24-.2-10-2.43-15-3.09,7.82,0,15.69,1,23.4.66,7.41-.35,14.7.22,22,.34,2.11,0,3.72-1.21,5.51-2a1.94,1.94,0,0,1,.59,1.16A3.87,3.87,0,0,1,189,118.07Z"/><path class="cls-143" d="M280.92,138.07c0-1,0-2,0-3l36.93,0c0,1.34,0,2.68,0,4a2.14,2.14,0,0,1-1,2,82.17,82.17,0,0,1-36.05,1.33A3.11,3.11,0,0,1,280.92,138.07Z"/><path class="cls-144" d="M317,145.06c0,1.33,0,2.66,0,4h-.08a4.26,4.26,0,0,1-3.62,2.27c-8.25.89-16.5,1.68-24.79,2a14,14,0,0,1-7.23-1.56,3.33,3.33,0,0,1-1.33-2.24,6.1,6.1,0,0,1,0-1.81,3.14,3.14,0,0,1,1.39-2.23c2.82-1.26,5.82-.75,8.76-.83,8.2-.22,16.44.55,24.57-1.16a2.76,2.76,0,0,1,2.31.61C316.94,144.39,317,144.72,317,145.06Z"/><path class="cls-145" d="M316.92,144.05c-11.82,3.57-24,1.38-36,2a2.65,2.65,0,0,1-.92-2,2.58,2.58,0,0,1,.92-2c7.82,0,15.64,0,23.46,0,4.22,0,8.14-3.41,12.53-1Z"/><path class="cls-146" d="M281,151.05c12.09,1.67,24-.1,35.88-2v2c-1.56,3.82-5.38,3.84-8.26,3.78-8.95-.2-17.79,1.27-26.7,1.2-1,.16-1.45-.47-1.79-1.25C279.79,153.41,279.8,152.09,281,151.05Z"/><path class="cls-147" d="M190,115.07l0-1c0-1,0-2,0-3,0-.65,0-1.31,0-2h1a6.26,6.26,0,0,1,5.07-1.46c6.29.6,12.79-1.56,18.9,1.43l-.15,4c-.31.65-.61,1.29-.91,1.94a5,5,0,0,1-4.06,1.47C203.2,115.88,196.38,118.21,190,115.07Z"/><path class="cls-28" d="M246.05,132.05c-.36-2.75-1.71-5.48-.23-8.29-.29,3.48,1.36,4.45,4.73,4.38,9.79-.21,19.59-.08,29.38-.07,0,1.33,0,2.66,0,4a6.44,6.44,0,0,1-4.59,1.48q-12.36,0-24.72,0A6.21,6.21,0,0,1,246.05,132.05Z"/><path class="cls-25" d="M281,142.05l-.06,2c-3.62-4.1-8.48-3.49-13.18-3.48-5,0-10,.08-14.94-.05-2.14-.05-4.41,0-5.58-2.4-.59-1.61-1.43-3.17-1.07-5,9.06,1,18.14.23,27.21.47,2.3.06,4.67-.24,6.59,1.48.05,1.1-.16,2.27,1,3C280.94,139.4,281,140.72,281,142.05Z"/><path class="cls-148" d="M279.93,135.06c-9.54,0-19.08,0-28.62,0-2.05,0-3.94-.05-5.18-2,0-.35-.06-.7-.08-1.06h33.89C279.94,133.06,279.94,134.06,279.93,135.06Z"/><path class="cls-103" d="M187.79,256c-1.77-5.13-.53-10.41-.76-15.62-.25-5.43-.08-10.88-.09-16.33,0-7.49-.08-15,.05-22.47.11-6.19-.11-12.27-3.23-18A31.43,31.43,0,0,1,195,203.31c1.74,10.12.83,20.48,3,30.58,1.22,5.81,2.13,11.7,3.1,17.57.54,3.28,2.71,3.58,5.48,3.57,19.81-.06,39.63,0,59.44,0-1.66,1.7-3.78.94-5.69.94Q224,256.05,187.79,256Z"/><path class="cls-149" d="M300.15,181c5.76,2.53,11.2-.26,16.76-1v10c-3.63-1.14-6.33,2.19-9.76,2Q303.65,186.53,300.15,181Z"/><path class="cls-150" d="M281,151.05c0,1.33-.05,2.67-.07,4-5,2.79-10.06,1.8-15.09,0L261.08,153l-5.1-3.93a4,4,0,0,1,3.08-1.37c7.29.25,14.73-1.76,21.84,1.38Z"/><path class="cls-151" d="M298.9,172.05a11.27,11.27,0,0,0-1.11,5c-4.71-7.57-12.64-10.85-19.91-15,4.67-2.65,9.35-1.1,14,0l.08,0a39.62,39.62,0,0,0,6,9Z"/><path class="cls-152" d="M291.9,162.06h-14a44.48,44.48,0,0,1-12.05-7l15.09,0,1,1c.46,2.9,2.29,4,5.07,4C288.88,160.05,291,159.69,291.9,162.06Z"/><path class="cls-153" d="M279.89,220.87c-.15,2,.75,4.23-.77,6.11C279,224.89,278.64,222.78,279.89,220.87Z"/><path class="cls-153" d="M281.8,215.05,280.12,217c-.46-1.75.44-3.21,1-4.75C282.26,213,281.94,214,281.8,215.05Z"/><path class="cls-154" d="M146,275.86c-2-2.61-4.19-5.07-7.27-6.54-1-.48-2.48-.93-2.21-2.29s1.87-1,2.94-1c5.44-.05,10.89,0,16.33,0,1.16,0,2.34.1,3.21-.9,1.69-1.15,3.24-1.69,4.08.92.83,9.31,7.85,12.31,15.2,15.18,13.5,5.28,27.68,7.86,41.74,10.94,1.78,1.09,1.15,2-.27,2.71a15.22,15.22,0,0,1-4.1,1.25c-5.81.48-11.08-1.95-16.51-3.31-16.43-4.1-32.66-8.93-48.81-14C148.6,278.21,146.63,278,146,275.86Z"/><path class="cls-155" d="M335,274l0,4a9.41,9.41,0,0,1,.92,7.89c-2.87,3-5.59,6.23-9,8.66-1.81.87-3.84.61-5.71,1.16a7,7,0,0,1-2.15,0c-.81-.11-1.59-.37-2.41-.43-5.26-.4-5.41-.27-5.81,5a5.78,5.78,0,0,1-4.68,3.82c-2.67-.36-5.63,1.47-8-1,3-2.43,3.37-4.44-.82-5.94a40.75,40.75,0,0,1-4.32-2.08c7.12-3.71,15.15-4.95,22.36-8.6C322.26,282.91,329.48,279.88,335,274Z"/><path class="cls-156" d="M298,303.09l7.9-.13c.05,2.54-2.46,1.7-3.58,2.71-5.59,2.64-11.81,1.24-17.58,2.71a213.41,213.41,0,0,1-30.36-3.32c-10-2-20.15-3.76-30.14-6.08-2.83-1.34-6.7-.43-8.56-3.89.78-1.91,4.64.61,4.28-3,18.92,3.77,37.83,7.64,56.79,11.25C283.82,304.71,291,304.09,298,303.09Z"/><path class="cls-157" d="M157,255.2,134,254.86c3.13-3.25,7.61-3.93,11.52-4.85,5.43-1.29,10.49-4.24,16.28-4l.87,8.82C160.88,256.65,159,256.48,157,255.2Z"/><path class="cls-94" d="M247.2,138.1c4,1.92,8.16.72,12.25.91a105.84,105.84,0,0,0,13.91,0c4.17-.37,6.91.56,7.54,5.06l.06,2-.06,2c-7.09-2.44-14.44-1.16-21.68-1.45-2.81-.12-5.69.25-8.17-1.53A11.49,11.49,0,0,1,247.2,138.1Z"/><path class="cls-22" d="M251.05,145.05c8.13,0,16.27.15,24.4-.08,2.71-.08,4.32.82,5.45,3.06v1H256A9.36,9.36,0,0,1,251.05,145.05Z"/><path class="cls-158" d="M214.93,109.05l-24,0c-.25-2.94,1.66-3,3.82-3,6.75.07,13.5.07,20.25.1C215,107.12,215,108.09,214.93,109.05Z"/><path class="cls-159" d="M334.9,287c0-3,0-6,0-9,12.28,8.28,31.69,6,41.83-4.95.05,3.48-.13,7,.22,10.42.46,4.48-1.81,6.86-5.62,8.17a69.41,69.41,0,0,1-13.4,3.45l-14-.21c-2.91-.82-6.15-.83-8.34-3.39a6.9,6.9,0,0,1-1.3-2.56A2.09,2.09,0,0,1,334.9,287Z"/><path class="cls-160" d="M99.91,202.83c-1.18.11-1.71-.44-1.83-1.32s-.16-1.73.83-2c1.18-.28,1.75.55,2,1.57A1.3,1.3,0,0,1,99.91,202.83Z"/><path class="cls-161" d="M116,207c.6-.42,1-.85,1.33-.87s.63.46,1,.72c-.34.32-.64.81-1,.9S116.53,207.35,116,207Z"/><path class="cls-162" d="M328.85,295.1l-7.92-.22c1.79-1.6,4-.6,6-.93,3-1.16,4.67-4.4,8-5a2.07,2.07,0,0,1,1,2c1.13,1.7.83,3-1,3.95Z"/><path class="cls-163" d="M334.92,294.89a6.21,6.21,0,0,0,1-3.95l8,3.94Z"/><path class="cls-164" d="M190,115.07l23.91,0c.39,3-1.54,3.07-3.7,3-7.06,0-14.12,0-21.18,0C189.31,117.07,189.63,116.07,190,115.07Z"/><path class="cls-93" d="M175,119.07c1-.32,1.92-1.42,3.08-.69.23.15,0,1.1-.07,1.68C176.86,120,175.69,120.23,175,119.07Z"/><path class="cls-165" d="M334.93,289c-2.63,1.73-3.88,5.67-8,5,2.34-2.7,3.61-6.61,8-7Z"/></g></g></svg>