<svg xmlns="http://www.w3.org/2000/svg" viewBox="0 0 108.1 39.16"><defs><style>.cls-1,.cls-2{fill:#00103e;}.cls-1,.cls-3{fill-rule:evenodd;}.cls-3{fill:#009fe3;}</style></defs><g id="Capa_2" data-name="Capa 2"><g id="Capa_1-2" data-name="Capa 1"><path class="cls-1" d="M27,24.22l-.77-2h-6.5l-.77,2.05a7.25,7.25,0,0,1-.76,1.63,1.23,1.23,0,0,1-1,.41A1.54,1.54,0,0,1,16,25.85a1.34,1.34,0,0,1-.46-1,2.27,2.27,0,0,1,.1-.67c.08-.24.2-.56.36-1l4.1-10.38c.11-.3.25-.66.41-1.07a6,6,0,0,1,.52-1.05A2.17,2.17,0,0,1,21.8,10a2.26,2.26,0,0,1,1.12-.26A2.21,2.21,0,0,1,24,10a2.15,2.15,0,0,1,.74.66,4.51,4.51,0,0,1,.46.87c.14.31.3.72.49,1.23l4.18,10.33a5,5,0,0,1,.49,1.71,1.39,1.39,0,0,1-.47,1,1.48,1.48,0,0,1-1.11.46,1.45,1.45,0,0,1-.65-.14,1.37,1.37,0,0,1-.46-.36,3.7,3.7,0,0,1-.4-.72c-.14-.33-.26-.61-.36-.86m-6.42-4.44h4.78l-2.41-6.6Z"/><path class="cls-1" d="M6.85,26.2H2a2.05,2.05,0,0,1-1.51-.46A2.17,2.17,0,0,1,0,24.22v-12a2.05,2.05,0,0,1,.46-1.51A2.06,2.06,0,0,1,2,10.21H7.15a11.5,11.5,0,0,1,2,.14,4.38,4.38,0,0,1,1.51.54,3.94,3.94,0,0,1,1,.87,3.65,3.65,0,0,1,.67,1.14,3.89,3.89,0,0,1,.22,1.32,3.68,3.68,0,0,1-2.39,3.52c2.1.66,3.15,2,3.15,3.9a4.36,4.36,0,0,1-.69,2.42,4.2,4.2,0,0,1-1.85,1.59,6.65,6.65,0,0,1-1.68.43,18,18,0,0,1-2.22.12m-.24-7.1H3.24v4.67H6.72C8.91,23.77,10,23,10,21.4a1.94,1.94,0,0,0-.85-1.75,4.74,4.74,0,0,0-2.55-.55M3.24,12.64v4.14h3a5.9,5.9,0,0,0,1.86-.23,1.76,1.76,0,0,0,1-.88,1.94,1.94,0,0,0,.27-1,1.58,1.58,0,0,0-.86-1.6,6.49,6.49,0,0,0-2.63-.41Z"/><path class="cls-1" d="M52.73,20h-3V24.5A2.17,2.17,0,0,1,49.31,26,1.63,1.63,0,0,1,47,26a2.15,2.15,0,0,1-.45-1.47V12.19a2,2,0,0,1,.5-1.52,2.19,2.19,0,0,1,1.56-.46h4.15a10.9,10.9,0,0,1,2.84.28,4.25,4.25,0,0,1,1.69.91A4,4,0,0,1,58.35,13,5.4,5.4,0,0,1,58.72,15a4.58,4.58,0,0,1-1.5,3.71A6.93,6.93,0,0,1,52.73,20M52,12.64H49.77v4.89H52a6.49,6.49,0,0,0,1.91-.24A2.21,2.21,0,0,0,55,16.5a2.33,2.33,0,0,0,.41-1.43,2.44,2.44,0,0,0-.62-1.72A4.18,4.18,0,0,0,52,12.64"/><path class="cls-1" d="M83.71,19.36H82.57V24.5a2.14,2.14,0,0,1-.45,1.5,1.52,1.52,0,0,1-1.17.48,1.48,1.48,0,0,1-1.19-.5,2.22,2.22,0,0,1-.43-1.48V12.19a2.07,2.07,0,0,1,.47-1.51,2.09,2.09,0,0,1,1.52-.47h5.27a16.52,16.52,0,0,1,1.86.09,5,5,0,0,1,1.4.38,4.12,4.12,0,0,1,1.33.9A3.9,3.9,0,0,1,92.05,13a4.29,4.29,0,0,1,.31,1.65,4,4,0,0,1-1,2.85,5.7,5.7,0,0,1-3,1.52,6.1,6.1,0,0,1,1.64,1.35,13.56,13.56,0,0,1,1.4,1.91,12.09,12.09,0,0,1,1,1.82,3.59,3.59,0,0,1,.35,1.12,1.13,1.13,0,0,1-.21.63,1.33,1.33,0,0,1-.54.48,1.73,1.73,0,0,1-.81.19,1.61,1.61,0,0,1-.92-.26,2.64,2.64,0,0,1-.64-.65c-.17-.26-.41-.65-.72-1.16l-1.3-2.16a11.69,11.69,0,0,0-1.25-1.81,3.23,3.23,0,0,0-1.12-.85,3.83,3.83,0,0,0-1.42-.23m1.85-6.72h-3V17h2.9a8.42,8.42,0,0,0,2-.2,2.41,2.41,0,0,0,1.21-.68,2,2,0,0,0,.42-1.35,2.11,2.11,0,0,0-.33-1.17,2.08,2.08,0,0,0-.94-.76,6.79,6.79,0,0,0-2.24-.24"/><path class="cls-1" d="M106.44,12.88h-3.53V24.5a2.17,2.17,0,0,1-.45,1.5,1.5,1.5,0,0,1-1.15.48,1.56,1.56,0,0,1-1.18-.49,2.16,2.16,0,0,1-.45-1.49V12.88H96.14a1.81,1.81,0,0,1-1.23-.36,1.25,1.25,0,0,1-.4-1,1.21,1.21,0,0,1,.41-1,1.85,1.85,0,0,1,1.22-.36h10.3a1.8,1.8,0,0,1,1.25.37,1.35,1.35,0,0,1,0,1.94,1.86,1.86,0,0,1-1.25.36"/><path class="cls-1" d="M63.64,18.19A5.18,5.18,0,1,0,68.82,13a5.18,5.18,0,0,0-5.18,5.17m-3.11,0a8.29,8.29,0,1,1,8.29,8.29,8.28,8.28,0,0,1-8.29-8.29"/><path class="cls-2" d="M34.68,8.1a2.2,2.2,0,1,1,2.2,2.2,2.19,2.19,0,0,1-2.2-2.2"/><path class="cls-1" d="M35.22,24.5V19.43l-3.91-6.06a13.86,13.86,0,0,1-.73-1.28,1.9,1.9,0,0,1-.21-.79,1.26,1.26,0,0,1,.43-1,1.51,1.51,0,0,1,1.07-.4,1.24,1.24,0,0,1,1,.38,9.4,9.4,0,0,1,1,1.49l3,4.86,3-4.86.46-.75a5.81,5.81,0,0,1,.4-.57,1.62,1.62,0,0,1,.51-.41A1.34,1.34,0,0,1,42,9.94a1.38,1.38,0,0,1,1,.4,1.25,1.25,0,0,1,.41.92,1.94,1.94,0,0,1-.21.85,12.07,12.07,0,0,1-.7,1.17l-4,6.15V24.5A2.11,2.11,0,0,1,38,26a1.55,1.55,0,0,1-1.17.49A1.49,1.49,0,0,1,35.67,26a2.17,2.17,0,0,1-.45-1.5"/><path class="cls-3" d="M28.76,8A8.12,8.12,0,0,1,45,8H41.75A4.88,4.88,0,0,0,32,8Z"/><path class="cls-2" d="M4.12,34.77a.48.48,0,0,1-.46.51c-.29,0-.51-.21-.92-.21s-.57.16-.57.45c0,.71,2.31.26,2.31,2a1.64,1.64,0,0,1-1.77,1.6C2.18,39.16,1,39,1,38.39a.46.46,0,0,1,.47-.49c.32,0,.71.26,1.16.26s.7-.25.7-.59c0-.81-2.31-.32-2.31-1.92a1.6,1.6,0,0,1,1.72-1.57c.38,0,1.35.14,1.35.69"/><path class="cls-2" d="M5.11,36.62a2.38,2.38,0,0,1,2.37-2.54,2.41,2.41,0,0,1,2.37,2.54,2.38,2.38,0,1,1-4.74,0m3.67,0c0-.84-.44-1.59-1.3-1.59s-1.3.75-1.3,1.59.42,1.58,1.3,1.58,1.3-.74,1.3-1.58"/><path class="cls-2" d="M10.66,34.66a.5.5,0,0,1,.52-.54.49.49,0,0,1,.52.54v3.46h1.23a.48.48,0,1,1,0,1H11.2a.51.51,0,0,1-.54-.56Z"/><path class="cls-2" d="M13.94,34.66a.52.52,0,1,1,1,0v2.41A1.05,1.05,0,0,0,16,38.2a1.08,1.08,0,0,0,1.06-1.13V34.66a.52.52,0,1,1,1,0v2.46a2.1,2.1,0,0,1-4.19,0Z"/><path class="cls-2" d="M21.27,34.08c.51,0,1.49.16,1.49.77a.44.44,0,0,1-.43.47c-.28,0-.48-.25-1.06-.25-.85,0-1.29.73-1.29,1.57a1.35,1.35,0,0,0,1.29,1.52c.58,0,.82-.29,1.1-.29a.49.49,0,0,1,.46.47c0,.67-1,.82-1.56.82a2.55,2.55,0,0,1,0-5.08"/><path class="cls-2" d="M23.69,34.66a.52.52,0,1,1,1,0v3.92a.52.52,0,1,1-1,0Z"/><path class="cls-2" d="M25.53,36.62a2.38,2.38,0,0,1,2.38-2.54,2.42,2.42,0,0,1,2.37,2.54,2.38,2.38,0,1,1-4.75,0m3.67,0c0-.84-.43-1.59-1.29-1.59s-1.3.75-1.3,1.59.42,1.58,1.3,1.58,1.29-.74,1.29-1.58"/><path class="cls-2" d="M31.05,34.66a.49.49,0,0,1,.52-.54.62.62,0,0,1,.43.23l2.19,2.92h0V34.66a.52.52,0,1,1,1,0v3.92a.5.5,0,0,1-.52.54.66.66,0,0,1-.43-.23L32.1,36h0v2.58a.52.52,0,1,1-1,0Z"/><path class="cls-2" d="M36.2,34.76a.53.53,0,0,1,.54-.6h1.71a.48.48,0,1,1,0,1H37.24v1h1.12a.47.47,0,0,1,.51.48.48.48,0,0,1-.51.48H37.24v1h1.27a.48.48,0,1,1,0,1H36.73a.5.5,0,0,1-.53-.51Z"/><path class="cls-2" d="M42.68,34.77a.48.48,0,0,1-.46.51c-.29,0-.51-.21-.92-.21s-.57.16-.57.45c0,.71,2.31.26,2.31,2a1.64,1.64,0,0,1-1.77,1.6c-.53,0-1.67-.13-1.67-.77a.46.46,0,0,1,.46-.49c.32,0,.71.26,1.16.26s.7-.25.7-.59c0-.81-2.3-.32-2.3-1.92a1.59,1.59,0,0,1,1.71-1.57c.38,0,1.35.14,1.35.69"/><path class="cls-2" d="M46.09,34.7a.53.53,0,0,1,.54-.54H48.4a.48.48,0,0,1,0,1H47.13v1H48.2a.46.46,0,0,1,.49.47.47.47,0,0,1-.49.49H47.13v1.5a.52.52,0,1,1-1,0Z"/><path class="cls-2" d="M49.54,34.66a.52.52,0,1,1,1,0v3.92a.52.52,0,1,1-1,0Z"/><path class="cls-2" d="M51.53,34.66a.49.49,0,0,1,.52-.54.62.62,0,0,1,.43.23l2.19,2.92h0V34.66a.49.49,0,0,1,.51-.54.49.49,0,0,1,.52.54v3.92a.5.5,0,0,1-.52.54.68.68,0,0,1-.43-.23L52.58,36h0v2.58a.52.52,0,1,1-1,0Z"/><path class="cls-2" d="M57.82,34.65a.81.81,0,0,1,.74-.57.79.79,0,0,1,.74.57l1.35,3.76a.72.72,0,0,1,.05.25.46.46,0,0,1-.47.46.49.49,0,0,1-.51-.36l-.2-.65H57.6l-.21.64a.48.48,0,0,1-.5.37.5.5,0,0,1-.51-.49.58.58,0,0,1,0-.22Zm.07,2.51h1.32l-.64-2h0Z"/><path class="cls-2" d="M61.37,34.66a.49.49,0,0,1,.52-.54.62.62,0,0,1,.43.23l2.19,2.92h0V34.66a.49.49,0,0,1,.52-.54.5.5,0,0,1,.52.54v3.92a.5.5,0,0,1-.52.54.7.7,0,0,1-.44-.23L62.42,36h0v2.58a.52.52,0,1,1-1,0Z"/><path class="cls-2" d="M68.7,34.08c.5,0,1.48.16,1.48.77a.44.44,0,0,1-.43.47c-.28,0-.47-.25-1-.25-.86,0-1.3.73-1.3,1.57a1.35,1.35,0,0,0,1.3,1.52c.58,0,.81-.29,1.1-.29a.48.48,0,0,1,.45.47c0,.67-1,.82-1.55.82a2.55,2.55,0,0,1,0-5.08"/><path class="cls-2" d="M71.11,34.66a.5.5,0,0,1,.52-.54.49.49,0,0,1,.52.54v3.92a.5.5,0,0,1-.52.54.5.5,0,0,1-.52-.54Z"/><path class="cls-2" d="M73.15,34.76a.53.53,0,0,1,.54-.6H75.4a.48.48,0,1,1,0,1H74.19v1h1.13a.47.47,0,0,1,.5.48.48.48,0,0,1-.5.48H74.19v1h1.27a.48.48,0,1,1,0,1H73.68a.5.5,0,0,1-.53-.51Z"/><path class="cls-2" d="M76.73,34.7a.49.49,0,0,1,.53-.54h1.21c1.07,0,1.72.48,1.72,1.56A1.34,1.34,0,0,1,78.92,37l1.17,1.25a.45.45,0,0,1,.14.31.53.53,0,0,1-.52.53.54.54,0,0,1-.4-.18l-1.53-1.86h0v1.5a.52.52,0,1,1-1,0Zm1,1.64h.71a.6.6,0,0,0,.65-.62.59.59,0,0,0-.65-.61h-.71Z"/><path class="cls-2" d="M82.08,34.65a.81.81,0,0,1,.74-.57.78.78,0,0,1,.74.57l1.35,3.76a.59.59,0,0,1,.06.25.46.46,0,0,1-.48.46.48.48,0,0,1-.5-.36l-.21-.65H81.86l-.2.64a.48.48,0,0,1-.5.37.5.5,0,0,1-.51-.49.44.44,0,0,1,0-.22Zm.08,2.51h1.31l-.64-2h0Z"/><path class="cls-2" d="M88.58,34.77a.48.48,0,0,1-.46.51c-.29,0-.51-.21-.92-.21s-.57.16-.57.45c0,.71,2.31.26,2.31,2a1.64,1.64,0,0,1-1.77,1.6c-.53,0-1.67-.13-1.67-.77A.45.45,0,0,1,86,37.9c.32,0,.71.26,1.16.26s.7-.25.7-.59c0-.81-2.3-.32-2.3-1.92a1.59,1.59,0,0,1,1.71-1.57c.38,0,1.35.14,1.35.69"/></g></g></svg>